<?xml version="1.0" standalone="no"?>
<!DOCTYPE svg PUBLIC "-//W3C//DTD SVG 20010904//EN"
 "http://www.w3.org/TR/2001/REC-SVG-20010904/DTD/svg10.dtd">
<svg version="1.0" xmlns="http://www.w3.org/2000/svg"
 width="520.000000pt" height="520.000000pt" viewBox="0 0 520.000000 520.000000"
 preserveAspectRatio="xMidYMid meet">
<metadata>
Created by potrace 1.11, written by Peter Selinger 2001-2013
</metadata>
<g transform="translate(0.000000,520.000000) scale(0.100000,-0.100000)"
fill="#000000" stroke="none">
<path d="M3469 5066 c-84 -28 -125 -51 -132 -73 -4 -10 -30 -54 -59 -98 -52
-80 -52 -80 -56 -172 -2 -54 0 -99 7 -110 10 -17 10 -17 11 1 0 39 14 4 16
-41 2 -29 8 -51 18 -59 9 -6 16 -21 16 -33 0 -12 5 -29 11 -39 9 -14 3 -25
-30 -61 -44 -47 -47 -57 -30 -93 9 -21 5 -29 -31 -67 -32 -33 -54 -47 -98 -58
-31 -8 -73 -23 -93 -34 -36 -18 -82 -69 -77 -86 3 -13 -152 -315 -178 -346
-13 -16 -24 -35 -24 -43 0 -8 -18 -45 -40 -81 -39 -65 -65 -152 -61 -207 1
-16 15 -45 32 -64 28 -31 30 -38 22 -76 -15 -77 -8 -226 16 -302 47 -157 141
-296 226 -335 28 -13 53 -28 56 -33 4 -5 11 -6 15 -3 5 3 8 -25 8 -61 -2 -72
9 -103 49 -140 14 -13 23 -31 21 -40 -1 -9 -12 -62 -23 -117 -11 -55 -25 -136
-31 -180 -6 -44 -26 -134 -45 -200 -45 -163 -65 -306 -50 -357 6 -21 15 -35
19 -31 4 4 7 1 5 -7 -1 -8 1 -24 5 -35 4 -11 12 -33 18 -50 6 -16 16 -43 24
-60 8 -16 26 -75 39 -130 14 -55 34 -131 45 -170 10 -38 26 -108 36 -155 9
-47 20 -105 26 -130 16 -78 17 -150 3 -150 -10 0 -35 -47 -35 -66 0 -2 17 -4
38 -5 29 0 33 -2 17 -9 -11 -4 -30 -17 -42 -29 -12 -12 -32 -21 -43 -21 -12 0
-19 -3 -17 -8 3 -4 -5 -8 -16 -9 -12 -1 -44 -6 -72 -12 -27 -7 -124 -13 -215
-15 -161 -4 -198 -8 -222 -22 -14 -9 -54 -16 -91 -17 -26 0 -27 0 -7 -14 17
-12 28 -11 86 6 44 13 73 17 87 11 l22 -9 -22 0 c-27 -1 -40 -20 -22 -32 8 -4
-35 -6 -96 -2 -79 4 -107 2 -100 -5 23 -25 546 -33 697 -11 53 8 96 11 95 6
-2 -10 117 -10 225 -1 40 4 73 2 80 -4 8 -5 80 -10 168 -11 85 0 177 -2 205
-5 27 -2 70 3 95 11 35 11 253 30 373 33 9 0 17 5 17 10 0 6 -50 10 -127 11
-168 1 -167 1 -171 69 -1 30 1 51 5 45 5 -6 33 -8 68 -4 l60 6 -53 1 c-51 2
-52 3 -41 25 14 25 13 152 -1 230 -6 27 -15 110 -20 184 -15 193 -48 440 -65
481 -8 19 -17 78 -20 131 -3 53 -10 112 -16 131 -7 19 -13 91 -14 160 -2 69
-7 159 -13 200 -6 41 -12 143 -12 227 l0 152 48 64 c26 35 58 87 71 115 24 52
24 54 12 160 -7 59 -16 121 -21 137 -5 17 -11 63 -13 104 -3 55 -9 77 -21 87
-9 6 -18 23 -18 36 -1 12 -8 31 -16 40 -9 11 -14 38 -13 75 1 48 -10 100 -45
221 -2 6 -14 12 -28 12 -13 0 -27 -6 -29 -12 -4 -8 -6 -7 -6 3 -1 9 6 19 13
22 18 7 137 -43 130 -54 -3 -5 9 -38 27 -73 23 -46 39 -66 56 -71 13 -3 28 -3
32 -1 4 3 29 7 55 10 58 5 82 25 112 92 39 87 39 113 6 180 -54 105 -54 104
35 146 43 20 132 63 198 94 66 31 128 57 137 56 9 0 22 6 28 13 9 11 17 11 36
3 20 -10 27 -9 34 3 7 10 9 5 7 -16 -2 -24 2 -30 18 -30 12 0 21 8 24 20 3 17
1 18 -13 6 -14 -12 -16 -11 -16 7 0 28 40 37 57 12 16 -23 43 -27 43 -7 0 7
-6 19 -12 26 -7 7 -8 11 -3 10 10 -3 74 7 108 17 9 3 17 12 17 20 0 8 7 26 16
39 21 32 11 113 -14 122 -9 4 -43 24 -75 46 -58 39 -81 42 -60 8 10 -16 8 -20
-13 -30 -33 -15 -34 -14 -34 9 0 15 -7 20 -24 20 -33 0 -41 -15 -16 -33 19
-13 18 -14 -14 -30 -34 -16 -34 -15 -40 9 -4 13 -13 24 -20 24 -16 0 -29 -27
-16 -35 4 -3 11 1 13 7 3 8 6 6 6 -4 1 -10 -6 -26 -14 -35 -9 -10 -26 -30 -38
-44 -12 -14 -62 -42 -112 -62 -49 -21 -98 -42 -107 -47 -10 -6 -23 -10 -29
-10 -5 0 -36 -12 -67 -26 -31 -15 -75 -33 -97 -41 -22 -7 -49 -19 -60 -26 -30
-19 -59 -15 -61 8 -2 53 -5 65 -19 79 -10 10 -12 21 -7 36 l8 22 15 -23 c8
-13 23 -41 32 -61 10 -20 21 -40 26 -43 15 -9 -1 38 -31 88 -15 26 -28 56 -28
66 0 31 -44 152 -81 220 -33 63 -35 64 -99 83 -36 11 -69 26 -73 34 -4 8 -13
14 -20 14 -7 0 -6 -4 3 -10 8 -5 11 -10 6 -10 -4 0 -21 11 -38 25 -16 14 -39
25 -51 25 -32 0 -49 14 -41 33 7 19 -13 77 -27 77 -15 0 -10 26 10 48 10 12
21 22 25 22 3 0 25 18 48 41 40 38 42 45 46 106 5 71 -11 192 -34 265 -10 30
-29 60 -55 83 -43 38 -62 41 -68 9 -2 -10 -9 -23 -17 -27 -8 -4 -14 -13 -14
-19 0 -27 -44 -98 -75 -122 -25 -19 -33 -22 -31 -10 1 9 10 20 19 26 19 10 57
83 57 107 0 21 -14 3 -30 -39 -7 -19 -26 -47 -42 -62 -27 -26 -36 -52 -20 -61
4 -3 29 2 55 10 42 12 51 20 68 57 10 24 20 54 22 67 2 12 9 25 15 27 14 4 29
-54 36 -142 3 -38 11 -75 16 -81 7 -9 7 -14 1 -17 -6 -1 -15 -32 -20 -68 -15
-109 -55 -199 -88 -200 -5 0 -19 -16 -33 -34 -14 -19 -28 -32 -32 -30 -13 8
-46 -15 -53 -35 -12 -40 -85 -31 -85 10 0 11 -7 22 -15 25 -8 3 -17 15 -21 26
-3 11 -12 17 -19 14 -17 -6 -25 15 -25 63 0 38 -29 79 -44 64 -12 -12 -2 20
10 34 7 7 9 32 6 61 -3 35 0 57 11 72 9 13 17 17 22 11 11 -19 25 -12 25 12 0
24 17 47 35 47 18 0 106 87 129 128 32 58 47 76 89 101 20 12 37 26 37 31 0
14 -26 30 -72 44 -40 12 -50 11 -109 -8z m140 -23 l25 -16 -50 -13 c-28 -7
-87 -29 -131 -50 -64 -28 -87 -45 -107 -76 -14 -21 -22 -37 -18 -34 4 2 5 -17
3 -42 l-3 -46 -13 29 c-8 17 -14 25 -14 19 -1 -6 -12 -23 -25 -37 -19 -21 -25
-23 -30 -11 -7 19 14 64 31 64 7 0 13 7 13 16 0 8 5 12 10 9 6 -3 10 2 10 11
0 10 23 40 51 66 28 26 45 48 37 48 -8 0 -34 -19 -57 -42 l-43 -43 26 39 c32
47 90 92 154 117 51 20 91 17 131 -8z m-84 -105 c-15 -29 -31 -60 -35 -68 -4
-8 -17 -20 -29 -26 -13 -7 -28 -17 -34 -23 -22 -22 -26 -10 -13 34 15 49 5 59
-23 23 -23 -27 -35 -9 -14 21 15 23 70 51 171 90 2 0 -9 -23 -23 -51z m235
-27 c25 -54 50 -261 31 -261 -6 0 -11 -15 -12 -32 0 -31 -1 -31 -10 -10 -5 13
-7 28 -3 33 3 5 1 9 -5 9 -6 0 -7 7 -4 17 4 11 3 14 -5 9 -8 -5 -12 4 -12 29
0 20 -4 34 -8 31 -4 -2 -9 19 -10 47 -1 29 -7 74 -13 100 -6 26 -9 51 -6 54 3
3 9 -11 12 -31 4 -20 11 -33 16 -31 4 3 2 23 -6 45 -13 38 -13 39 5 28 10 -7
24 -23 30 -37z m-370 -91 c-5 -22 -8 -27 -9 -13 -1 21 9 56 14 51 2 -2 0 -19
-5 -38z m221 12 c-6 -11 -17 -22 -26 -26 -11 -4 -9 3 7 24 24 32 36 34 19 2z
m116 -184 c-3 -8 -6 -5 -6 6 -1 11 2 17 5 13 3 -3 4 -12 1 -19z m27 -45 c4 -9
0 -13 -10 -11 -12 2 -17 -7 -20 -32 -4 -33 -19 -59 -28 -49 -3 3 2 27 10 55
14 49 37 67 48 37z m-84 -209 c0 -8 -5 -12 -10 -9 -6 4 -8 11 -5 16 9 14 15
11 15 -7z m-369 -28 c-12 -15 -16 -75 -6 -99 5 -12 3 -16 -6 -12 -13 5 -39 50
-39 67 0 16 43 67 52 62 5 -3 5 -11 -1 -18z m399 -7 c0 -54 -57 -108 -100 -94
-21 7 -19 9 23 32 36 20 46 32 52 59 6 36 25 38 25 3z m-86 -11 c-10 -12 -29
-31 -42 -41 -12 -10 -20 -23 -17 -28 4 -5 -8 -9 -25 -9 -38 0 -32 14 18 39 20
10 46 28 56 40 25 28 34 27 10 -1z m37 0 c-4 -12 -19 -29 -32 -37 -21 -14 -21
-12 6 21 35 44 37 45 26 16z m-304 -1 c-2 -6 2 -18 9 -25 8 -7 14 -10 14 -5 0
4 6 0 13 -9 16 -20 115 -61 133 -54 8 3 14 1 14 -4 0 -6 15 -10 33 -10 54 0
63 -15 23 -34 -35 -17 -87 -15 -126 4 -8 4 -27 10 -42 14 -34 8 -37 -8 -5 -34
l22 -19 -30 8 c-33 8 -50 35 -70 110 -9 34 -9 49 -1 58 14 16 19 16 13 0z
m-23 -82 c5 -22 4 -26 -4 -15 -5 8 -10 24 -10 34 0 26 6 18 14 -19z m370 -2
c-2 -16 -10 -95 -19 -178 -8 -82 -18 -167 -20 -187 -3 -24 -1 -38 6 -38 7 0 9
-27 8 -77 l-3 -78 -82 0 c-70 0 -87 -3 -113 -22 -16 -13 -33 -23 -36 -23 -12
0 -4 24 13 36 15 12 15 13 1 14 -13 0 -18 15 -23 65 -4 39 -2 73 4 84 13 26
13 104 -1 135 -7 14 -8 33 -4 43 4 10 8 27 9 38 1 11 8 21 17 23 12 2 21 -9
31 -39 18 -54 31 -58 54 -20 10 17 21 31 24 31 8 0 12 -129 3 -142 -4 -7 -6
-29 -6 -48 2 -31 1 -32 -6 -10 -7 21 -8 18 -12 -22 -2 -27 0 -50 6 -52 6 -3 5
-8 -3 -14 -13 -9 -7 -62 7 -62 7 0 12 37 42 260 11 87 44 238 54 248 8 8 7 -4
-10 -114 -22 -150 -47 -386 -41 -392 9 -8 13 14 30 173 21 190 35 287 46 325
5 18 5 30 -1 30 -5 0 -1 9 8 20 10 11 18 20 18 20 1 0 0 -12 -1 -27z m66 -14
c0 -6 -4 -7 -10 -4 -5 3 -10 11 -10 16 0 6 5 7 10 4 6 -3 10 -11 10 -16z m54
-36 c4 -27 9 -66 13 -88 5 -36 4 -38 -11 -26 -11 10 -15 23 -11 38 3 13 -1 33
-9 46 -14 22 -11 91 4 82 4 -3 11 -26 14 -52z m-520 -36 c-6 -30 -54 -88 -54
-67 0 6 9 28 20 50 26 50 25 62 -1 30 -17 -20 -20 -21 -14 -5 4 11 10 28 12
38 5 17 7 17 25 1 14 -13 17 -25 12 -47z m27 46 c13 -17 13 -17 -6 -3 -11 8
-22 16 -24 17 -2 2 0 3 6 3 6 0 17 -8 24 -17z m442 -51 c-3 -14 1 -30 11 -41
12 -13 14 -21 7 -26 -6 -3 -11 -17 -11 -31 0 -19 5 -24 24 -24 13 0 27 8 32
18 5 12 10 1 15 -38 9 -72 11 -245 2 -236 -4 3 -7 48 -8 99 -2 99 -11 147 -27
147 -6 0 -8 -9 -5 -20 3 -11 1 -23 -4 -26 -15 -9 -10 -54 6 -54 18 0 18 -2 3
-35 -14 -30 -28 -16 -28 28 0 15 -9 60 -19 100 -10 39 -21 103 -24 141 -5 70
-5 70 14 45 11 -15 16 -33 12 -47z m228 12 c17 -10 5 -40 -17 -40 -13 0 -22 2
-22 6 2 21 -8 27 -48 27 -33 1 -47 -4 -52 -16 -5 -13 -7 -11 -13 9 -4 14 -7
35 -8 46 l-1 22 77 -24 c42 -14 80 -27 84 -30z m-771 -10 c-10 -27 -19 -43
-20 -37 0 16 31 95 36 90 2 -2 -5 -25 -16 -53z m266 5 c8 -14 -10 -11 -32 6
-18 13 -18 14 4 8 12 -3 25 -9 28 -14z m-156 -29 c0 -22 -5 -40 -10 -40 -6 0
-9 18 -8 40 4 52 18 52 18 0z m262 28 c-15 -15 -16 -32 -2 -23 12 7 13 -9 3
-45 l-7 -25 -7 25 -6 25 -11 -25 c-6 -14 -20 -36 -31 -49 l-19 -25 -16 38
c-16 38 -16 38 15 64 40 34 109 68 81 40z m-154 -33 c41 -7 50 -25 12 -25 -10
0 -23 -7 -28 -16 -7 -13 -13 -8 -31 27 -13 24 -17 38 -9 32 7 -6 32 -14 56
-18z m-75 -2 c3 -5 -1 -14 -9 -21 -12 -11 -14 -9 -14 8 0 20 14 27 23 13z
m334 -50 c-3 -10 -5 -4 -5 12 0 17 2 24 5 18 2 -7 2 -21 0 -30z m42 -66 c1
-18 -3 -26 -10 -21 -6 3 -9 17 -6 30 2 13 1 25 -3 26 -4 2 -5 19 -2 38 l6 35
7 -40 c4 -22 8 -53 8 -68z m-344 47 c2 -10 11 -46 20 -79 10 -37 14 -73 9 -95
-3 -19 -7 -87 -8 -151 -1 -110 -2 -117 -29 -148 -15 -18 -28 -38 -28 -44 -5
-55 -10 -71 -21 -78 -21 -13 -29 27 -13 65 10 23 13 55 10 93 -2 32 -7 140
-10 241 -4 144 -2 183 8 179 6 -2 18 10 25 26 13 32 29 28 37 -9z m-65 22 c0
-3 -4 -8 -10 -11 -5 -3 -10 -1 -10 4 0 6 5 11 10 11 6 0 10 -2 10 -4z m473
-11 c4 -8 2 -17 -3 -20 -6 -4 -10 3 -10 14 0 25 6 27 13 6z m63 -5 c0 -11 -4
-20 -8 -20 -4 0 -8 9 -8 20 0 11 4 20 8 20 4 0 8 -9 8 -20z m168 4 c3 -8 2
-12 -4 -9 -6 3 -10 10 -10 16 0 14 7 11 14 -7z m921 -31 c53 -34 62 -69 32
-130 -12 -24 -26 -44 -31 -44 -71 -9 -130 -21 -171 -34 -25 -9 -53 -11 -75 -6
l-35 7 45 7 c59 10 196 43 209 52 6 3 11 15 11 27 0 18 -5 19 -37 15 -77 -11
-129 -25 -176 -46 -57 -25 -67 -26 -67 -6 0 17 29 34 67 39 50 5 193 57 193
69 0 7 -4 19 -10 27 -8 12 -19 11 -82 -9 -40 -13 -92 -34 -115 -48 -39 -22
-41 -23 -36 -4 4 18 103 71 132 71 6 0 28 9 48 20 48 25 47 25 98 -7z m-1792
-125 c-6 -128 -15 -154 -27 -78 -3 23 -10 39 -15 36 -10 -7 -7 57 5 75 5 8 7
22 6 32 -2 9 1 17 6 17 6 0 13 12 16 26 12 47 14 21 9 -108z m524 75 c-3 -10
-5 -2 -5 17 0 19 2 27 5 18 2 -10 2 -26 0 -35z m373 16 c0 -6 -4 -7 -10 -4 -5
3 -10 11 -10 16 0 6 5 7 10 4 6 -3 10 -11 10 -16z m-838 -101 c5 -123 1 -155
-19 -163 -13 -4 -14 1 -9 26 3 17 6 78 6 135 0 57 4 104 9 104 5 0 11 -46 13
-102z m1678 92 c0 -5 -4 -10 -9 -10 -6 0 -13 5 -16 10 -3 6 1 10 9 10 9 0 16
-4 16 -10z m-1080 -35 c0 -8 -4 -15 -10 -15 -5 0 -7 7 -4 15 4 8 8 15 10 15 2
0 4 -7 4 -15z m264 -27 c9 -35 7 -45 -9 -52 -13 -4 -13 -2 -5 14 15 28 12 34
-7 19 -16 -13 -17 -12 -5 3 8 9 11 22 7 28 -3 5 -2 10 3 10 5 0 12 -10 16 -22z
m-907 -95 c-2 -21 -4 -6 -4 32 0 39 2 55 4 38 2 -18 2 -50 0 -70z m1753 77 c0
-5 -2 -10 -4 -10 -3 0 -8 5 -11 10 -3 6 -1 10 4 10 6 0 11 -4 11 -10z m-93
-26 c-3 -3 -12 -4 -19 -1 -8 3 -5 6 6 6 11 1 17 -2 13 -5z m-227 -29 c-7 -8
-22 -15 -34 -14 -18 0 -16 3 9 14 39 18 40 18 25 0z m167 9 c-3 -3 -12 -4 -19
-1 -8 3 -5 6 6 6 11 1 17 -2 13 -5z m-237 -9 c0 -3 -30 -19 -67 -36 -38 -18
-71 -34 -75 -36 -5 -2 -8 0 -8 5 0 5 21 17 47 27 25 10 58 24 72 31 29 16 31
16 31 9z m175 -5 c-27 -12 -43 -12 -25 0 8 5 22 9 30 9 10 0 8 -3 -5 -9z
m-198 -41 c-22 -11 -41 -18 -44 -16 -6 7 48 36 67 36 8 0 -2 -9 -23 -20z m43
-9 c0 -14 -59 -42 -71 -34 -7 4 1 14 18 25 31 21 53 24 53 9z m80 0 c-20 -13
-33 -13 -25 0 3 6 14 10 23 10 15 0 15 -2 2 -10z m-816 -63 l-8 -22 -7 25 c-4
14 -7 34 -8 45 -1 18 0 18 15 -3 10 -14 13 -30 8 -45z m556 44 c0 -11 -88 -46
-96 -38 -7 6 64 46 84 47 6 0 12 -4 12 -9z m57 -7 c-16 -9 -31 -13 -34 -10 -3
3 5 10 18 15 37 15 47 12 16 -5z m-1260 -50 c2 -19 1 -34 -1 -34 -2 0 -12 17
-23 38 -19 38 -19 38 2 34 15 -2 21 -12 22 -38z m1279 31 c-19 -15 -46 -20
-46 -10 0 6 40 24 55 24 6 0 1 -6 -9 -14z m113 11 c-2 -2 -15 -9 -29 -15 -24
-11 -24 -11 -6 3 16 13 49 24 35 12z m-189 -14 c0 -12 -79 -47 -87 -39 -3 4
14 16 38 27 51 23 49 22 49 12z m-110 -21 c0 -10 -133 -71 -155 -71 -8 0 -15
-4 -15 -10 0 -13 15 -13 38 0 9 5 44 21 76 35 46 20 61 23 68 13 13 -22 10
-25 -48 -49 -31 -13 -52 -25 -46 -27 5 -1 30 7 57 18 26 11 50 19 52 16 8 -8
-127 -55 -143 -49 -12 5 3 17 57 44 41 21 67 38 59 38 -8 0 -53 -20 -100 -45
-47 -25 -74 -43 -61 -40 28 6 16 -9 -16 -18 -20 -6 -22 -4 -20 30 3 35 6 38
87 80 86 43 110 51 110 35z m85 -26 c-43 -26 -60 -31 -49 -14 7 11 61 38 79
39 6 0 -8 -11 -30 -25z m135 21 c0 -2 -7 -7 -16 -10 -8 -3 -12 -2 -9 4 6 10
25 14 25 6z m-877 -53 c-7 -2 -21 -2 -30 0 -10 3 -4 5 12 5 17 0 24 -2 18 -5z
m722 -3 c-3 -5 -12 -10 -18 -10 -7 0 -6 4 3 10 19 12 23 12 15 0z m-402 -39
c19 -7 14 -12 -42 -40 -34 -18 -66 -29 -69 -26 -4 4 1 11 11 16 9 6 15 14 12
19 -3 5 3 7 14 5 15 -3 20 4 26 33 6 31 8 34 17 19 5 -10 19 -22 31 -26z
m-1168 -11 c-4 -12 -9 -19 -12 -17 -3 3 -2 15 2 27 4 12 9 19 12 17 3 -3 2
-15 -2 -27z m940 10 c10 -11 16 -20 13 -20 -3 0 -13 9 -23 20 -10 11 -16 20
-13 20 3 0 13 -9 23 -20z m-647 -70 c16 -92 16 -90 -11 -90 -13 0 -46 -7 -72
-15 -27 -8 -52 -12 -56 -9 -13 8 1 31 25 42 13 6 38 39 57 76 19 36 36 66 39
66 3 0 11 -32 18 -70z m972 60 c0 -5 -2 -10 -4 -10 -3 0 -8 5 -11 10 -3 6 -1
10 4 10 6 0 11 -4 11 -10z m28 -46 c1 -38 7 -63 18 -75 24 -27 42 -24 37 5 -3
14 1 25 10 29 15 6 27 -35 27 -97 0 -20 4 -27 14 -23 11 4 12 -2 5 -31 -8 -37
-50 -83 -57 -63 -2 5 -10 7 -18 4 -9 -3 -27 6 -42 20 -15 14 -52 37 -82 51
-80 35 -93 48 -92 85 1 30 -1 32 -16 18 -31 -27 -80 -48 -87 -36 -4 6 -5 12
-4 14 5 4 132 65 136 65 2 0 -1 -9 -7 -19 -15 -30 -12 -56 10 -76 18 -16 20
-16 26 -1 4 10 -1 25 -11 36 -12 13 -15 26 -9 42 l7 23 9 -27 c15 -43 26 -33
21 16 -4 28 -1 46 7 51 8 5 11 1 8 -11 -7 -32 20 -76 45 -72 19 3 22 9 22 53
0 42 8 75 19 75 1 0 3 -25 4 -56z m-58 42 c0 -3 -4 -8 -10 -11 -5 -3 -10 -1
-10 4 0 6 5 11 10 11 6 0 10 -2 10 -4z m18 -83 c-3 -26 -4 -26 -20 -9 -10 10
-18 24 -18 31 0 7 8 21 18 31 16 17 17 17 20 -4 2 -12 2 -34 0 -49z m-84 40
c-4 -15 -54 -30 -54 -17 0 3 48 32 57 34 0 0 -1 -8 -3 -17z m308 -13 c4 -29 4
-29 -17 -16 -17 11 -25 12 -34 3 -8 -8 -11 -8 -11 1 0 8 37 36 56 42 1 0 4
-14 6 -30z m-1514 -17 c-17 -40 -40 -74 -45 -69 -7 7 42 96 53 96 2 0 -2 -12
-8 -27z m1057 7 c-3 -5 -12 -10 -18 -10 -7 0 -6 4 3 10 19 12 23 12 15 0z
m320 -6 c-11 -8 -19 -20 -17 -25 1 -6 -2 -8 -8 -4 -16 10 -12 21 13 33 31 15
35 14 12 -4z m-245 -3 c0 -5 -6 -11 -12 -14 -7 -3 -30 -13 -51 -22 -23 -9 -36
-11 -32 -5 6 9 69 43 93 49 1 1 2 -3 2 -8z m-905 -21 c-10 -11 -23 -20 -29
-19 -6 0 -6 3 2 6 6 2 9 10 6 15 -4 6 -2 8 4 4 6 -3 13 -2 17 4 3 5 9 10 12
10 3 0 -2 -9 -12 -20z m785 -38 c0 -10 -89 -56 -96 -50 -2 3 17 17 43 31 56
30 53 29 53 19z m126 -34 c5 -16 1 -27 -16 -40 -24 -19 -40 -23 -40 -10 0 5
12 14 26 21 15 6 24 14 21 17 -3 3 -14 1 -25 -5 -26 -14 -42 -14 -42 -1 0 9
46 39 62 40 4 0 10 -10 14 -22z m-1196 -48 l-11 -25 6 25 c2 14 5 34 6 45 2
19 2 19 6 0 2 -12 -1 -32 -7 -45z m1088 48 c-4 -12 -84 -57 -102 -58 -12 0 31
41 59 57 27 15 48 16 43 1z m-858 -12 c6 -8 28 -20 48 -27 53 -16 58 -25 26
-41 -16 -7 -37 -29 -46 -48 l-17 -35 6 33 c6 34 -11 80 -34 95 -15 9 -18 37
-4 37 5 0 14 -7 21 -14z m1397 -43 c-3 -10 -5 -2 -5 17 0 19 2 27 5 18 2 -10
2 -26 0 -35z m-1262 17 c-3 -4 -15 -6 -27 -2 -21 5 -21 6 -2 12 21 8 37 3 29
-10z m595 11 c0 -5 -7 -11 -15 -15 -15 -5 -20 5 -8 17 9 10 23 9 23 -2z m150
-10 c0 -7 -90 -54 -100 -52 -18 4 2 26 40 45 43 22 60 24 60 7z m-302 -16 c-3
-3 -15 -8 -27 -10 -45 -9 -61 -17 -83 -43 -36 -43 -48 -48 -35 -13 13 35 69
69 116 70 19 1 32 -1 29 -4z m32 -5 c0 -5 -5 -10 -11 -10 -5 0 -7 5 -4 10 3 6
8 10 11 10 2 0 4 -4 4 -10z m76 1 c-6 -9 -46 -22 -46 -15 0 3 10 9 23 14 29
11 29 11 23 1z m54 -6 c0 -8 -82 -47 -87 -41 -3 2 12 14 34 25 39 20 53 25 53
16z m150 -4 c0 -5 -8 -11 -17 -14 -10 -2 -27 -8 -38 -12 -11 -4 -7 2 10 14 32
23 45 26 45 12z m72 -103 c9 -65 9 -95 0 -120 -11 -32 -11 -32 -6 14 4 41 -6
135 -23 193 -4 15 -2 17 6 9 6 -6 17 -49 23 -96z m-797 83 c3 -5 2 -12 -3 -15
-5 -3 -9 1 -9 9 0 17 3 19 12 6z m191 -6 c14 -13 13 -15 -10 -15 -25 0 -33 10
-19 23 9 10 13 9 29 -8z m394 8 c0 -8 -73 -53 -85 -53 -15 0 9 22 43 40 43 23
42 22 42 13z m-450 -13 c0 -5 -4 -10 -10 -10 -5 0 -10 5 -10 10 0 6 5 10 10
10 6 0 10 -4 10 -10z m104 4 c14 -5 14 -9 1 -34 -20 -40 -29 -43 -55 -20 -12
11 -27 17 -31 14 -5 -3 -9 0 -9 5 0 6 8 10 18 9 43 -3 61 2 56 17 -7 16 -3 18
20 9z m-291 -11 c-20 -7 -15 -25 5 -19 9 3 44 0 76 -7 57 -12 61 -14 91 -66
22 -37 30 -62 27 -80 l-5 -26 -8 27 c-8 29 -39 79 -39 62 0 -6 6 -33 14 -60
23 -82 25 -94 12 -94 -6 0 -17 19 -24 42 -16 50 -29 68 -49 68 -15 0 -15 -23
2 -62 14 -35 -21 -19 -38 17 -9 19 -21 35 -27 35 -18 0 -24 -31 -12 -62 8 -22
8 -28 -1 -25 -7 2 -18 23 -26 48 -7 24 -21 60 -29 79 -9 19 -15 38 -14 42 1 4
3 22 4 40 2 35 13 48 38 47 10 0 11 -2 3 -6z m631 -18 c-14 -11 -15 -14 -4
-15 9 0 2 -9 -15 -20 -33 -22 -50 -26 -40 -10 3 6 0 10 -7 10 -7 0 5 12 27 25
44 27 71 34 39 10z m410 -17 c9 -17 16 -34 16 -37 0 -8 -26 32 -33 52 -10 28
0 19 17 -15z m-1106 -38 c-7 -42 -6 -53 8 -67 12 -12 13 -18 5 -21 -18 -6 -23
3 -28 51 -4 36 8 87 21 87 2 0 -1 -23 -6 -50z m1214 23 c-5 -30 -18 -43 -44
-43 -35 0 2 53 48 70 1 0 -1 -12 -4 -27z m-949 -28 c-3 -9 -8 -14 -10 -11 -3
3 -2 9 2 15 9 16 15 13 8 -4z m127 5 c0 -5 -4 -10 -10 -10 -5 0 -10 5 -10 10
0 6 5 10 10 10 6 0 10 -4 10 -10z m-32 -12 c-6 -18 -56 -41 -69 -32 -8 4 1 14
22 25 41 22 52 23 47 7z m42 -28 c0 -5 -4 -10 -10 -10 -5 0 -10 5 -10 10 0 6
5 10 10 10 6 0 10 -4 10 -10z m224 -5 c-4 -8 -10 -15 -15 -15 -4 0 -6 7 -3 15
4 8 10 15 15 15 4 0 6 -7 3 -15z m-254 -3 c0 -5 -11 -14 -24 -20 -20 -9 -25
-8 -30 4 -3 8 -2 13 2 10 4 -2 14 -1 22 5 19 11 30 11 30 1z m-81 -16 c7 -8 8
-17 3 -20 -6 -3 -12 3 -15 14 -6 24 -4 25 12 6z m-499 -26 c-5 -17 -9 -33 -9
-36 1 -3 -2 -9 -6 -12 -7 -7 3 56 12 71 10 16 11 5 3 -23z m590 10 c0 -5 -18
-19 -40 -30 -38 -19 -56 -38 -26 -27 8 3 16 1 18 -5 3 -7 14 -5 35 5 30 16 70
15 104 -4 11 -6 33 -6 59 0 47 10 53 -1 10 -19 -17 -7 -33 -17 -37 -23 -4 -6
-1 -7 7 -2 8 5 11 4 7 -2 -3 -5 -22 -8 -41 -7 -20 2 -36 -1 -36 -7 0 -5 -8
-12 -17 -16 -26 -9 -63 -44 -63 -60 0 -8 4 -12 9 -8 5 3 12 1 15 -4 4 -5 -7
-7 -24 -5 -34 6 -44 -10 -54 -82 l-6 -39 12 33 c6 17 15 32 20 32 15 0 22 -32
10 -51 -7 -10 -12 -26 -12 -35 0 -8 -7 -22 -15 -30 -8 -8 -12 -21 -9 -28 3 -7
-2 -16 -10 -19 -9 -4 -14 -1 -11 6 2 7 6 24 9 40 6 27 6 27 -12 10 -10 -10
-18 -20 -16 -23 1 -3 -12 -6 -29 -7 -18 -2 -38 -11 -45 -20 -54 -75 -94 -83
-158 -32 -31 24 -46 30 -71 26 -20 -4 -33 -1 -36 6 -2 7 -7 -8 -11 -33 l-7
-45 -20 25 c-33 43 -99 181 -99 209 0 20 3 23 10 11 15 -23 30 31 30 108 0 86
8 112 34 121 29 10 118 2 110 -11 -8 -13 24 -96 52 -133 12 -16 36 -58 53 -92
32 -64 49 -75 71 -48 10 12 8 25 -9 66 -21 49 -22 51 -4 65 22 16 81 45 97 48
7 1 25 12 42 24 29 22 29 23 4 20 -17 -2 -26 2 -28 15 -2 10 3 17 12 17 9 0
16 8 16 20 0 14 7 20 23 20 12 0 31 7 41 15 23 17 36 19 36 5z m210 -15 c-29
-31 -80 -41 -120 -25 -40 17 -35 20 17 11 35 -7 49 -4 80 15 48 30 52 30 23
-1z m-160 10 c0 -7 -81 -47 -86 -42 -2 2 13 13 34 24 38 22 52 27 52 18z
m-673 -27 c-3 -8 -6 -5 -6 6 -1 11 2 17 5 13 3 -3 4 -12 1 -19z m286 -15 c7
-39 1 -40 -11 -4 -6 17 -7 31 -3 31 5 0 11 -12 14 -27z m152 -15 c6 -23 2 -29
-24 -43 -33 -17 -51 -13 -51 11 0 8 -4 14 -10 14 -5 0 -10 12 -9 28 l0 27 16
-32 c18 -35 35 -46 58 -37 17 7 20 30 5 39 -5 3 -10 14 -10 23 0 23 17 3 25
-30z m-135 -81 c0 -7 6 -21 13 -32 17 -25 58 -127 54 -131 -5 -6 -107 210
-107 227 0 8 9 -1 20 -19 11 -18 20 -38 20 -45z m24 11 c-7 -11 -7 -11 -24 22
-13 25 -13 25 8 6 12 -10 19 -23 16 -28z m129 15 c7 -6 -94 -63 -113 -63 -24
0 -6 22 38 44 50 27 64 30 75 19z m-450 -88 c4 -34 3 -42 -3 -25 -8 25 -13 87
-6 79 2 -2 6 -26 9 -54z m1087 51 c0 -2 -8 -10 -17 -17 -16 -13 -17 -12 -4 4
13 16 21 21 21 13z m-60 -16 c-8 -5 -19 -10 -25 -10 -5 0 -3 5 5 10 8 5 20 10
25 10 6 0 3 -5 -5 -10z m278 -45 c-3 -3 -9 2 -12 12 -6 14 -5 15 5 6 7 -7 10
-15 7 -18z m-495 8 c-7 -2 -19 -2 -25 0 -7 3 -2 5 12 5 14 0 19 -2 13 -5z
m-88 -17 c-17 -7 -45 -30 -63 -50 -17 -20 -32 -32 -32 -25 0 22 77 89 101 89
22 -1 22 -2 -6 -14z m-65 0 c0 -2 -8 -10 -17 -17 -16 -13 -17 -12 -4 4 13 16
21 21 21 13z m229 -25 c11 -7 13 -29 9 -101 -3 -50 -2 -108 3 -128 4 -20 13
-140 19 -267 5 -126 13 -252 16 -280 6 -42 4 -48 -8 -38 -8 7 -23 10 -35 7
-14 -4 -22 0 -25 14 -3 11 -6 134 -7 273 -1 140 -5 264 -8 277 -3 14 -1 22 7
22 9 0 11 14 6 53 -22 163 -18 194 23 168z m-70 -93 c-1 -54 -4 -76 -9 -63
-16 38 -11 145 6 145 2 0 3 -37 3 -82z m161 36 c0 -14 -34 -24 -46 -15 -18 12
-15 49 3 53 18 4 42 -18 43 -38z m-196 9 c-8 -34 -10 -37 -23 -29 -7 5 -7 15
1 31 15 34 30 32 22 -2z m542 -377 c-40 -83 -70 -124 -80 -108 -4 6 2 20 14
32 11 11 20 26 19 33 0 10 -2 10 -6 0 -2 -7 -9 -13 -15 -13 -5 0 1 14 13 31
15 21 24 27 29 19 6 -9 9 -9 16 1 4 7 3 14 -4 17 -7 2 -12 8 -12 14 0 7 4 7
13 -1 11 -8 13 -4 9 21 -3 21 -1 29 7 24 7 -5 9 -1 5 8 -3 9 -9 14 -13 11 -4
-2 -3 21 3 51 7 42 7 57 -3 63 -8 5 -10 18 -5 37 6 24 11 12 26 -70 l17 -98
-33 -72z m-781 176 c-24 -60 -110 -133 -155 -131 -25 1 -25 1 4 9 50 16 94 53
128 111 18 32 34 56 36 55 1 -2 -4 -22 -13 -44z m-405 -23 c0 -4 25 -24 55
-44 30 -21 55 -40 55 -41 0 -2 -14 2 -30 8 -29 10 -102 84 -122 123 -5 11 2 7
16 -10 14 -16 25 -33 26 -36z m680 -542 c-4 -5 -9 9 -12 30 -9 66 -10 447 -1
468 5 11 11 -89 14 -235 3 -140 3 -259 -1 -263z m-27 -22 c4 -8 3 -38 0 -66
-5 -45 -4 -52 10 -46 9 3 18 1 20 -6 7 -19 25 35 21 66 -2 15 1 27 6 27 6 0
10 -20 10 -44 0 -25 4 -47 9 -50 4 -3 11 -31 15 -61 3 -31 13 -91 21 -133 8
-42 22 -119 30 -171 9 -52 19 -100 24 -105 11 -16 31 -90 31 -118 0 -13 4 -28
9 -34 8 -9 26 -163 36 -319 3 -44 12 -111 21 -150 21 -96 26 -223 12 -328 -9
-69 -9 -97 1 -130 7 -23 12 -50 12 -59 -3 -52 -7 -68 -16 -64 -5 2 -19 -4 -29
-13 -11 -9 -17 -11 -13 -6 15 27 -11 37 -101 37 -50 0 -96 -3 -102 -7 -5 -3
-13 1 -17 11 -4 10 0 20 10 25 8 5 18 23 22 40 l7 31 84 -4 c46 -1 84 0 84 3
0 4 -41 7 -92 8 -99 2 -119 10 -111 42 3 12 1 24 -5 28 -6 3 -15 33 -21 66
-27 162 -43 241 -50 250 -4 5 -13 48 -20 95 -24 164 -50 276 -100 425 -35 107
-47 154 -40 166 5 10 9 28 9 41 0 26 126 408 167 506 26 63 36 73 46 47z m86
-37 l-1 -43 -8 35 c-8 32 -6 50 6 50 2 0 4 -19 3 -42z m27 -31 c-5 -43 -2 -56
15 -77 11 -14 18 -19 14 -12 -3 6 -1 12 4 12 6 0 11 -12 11 -26 0 -19 -4 -25
-15 -20 -11 4 -15 -2 -15 -20 0 -14 3 -23 8 -20 4 2 5 -14 3 -37 -4 -39 -6
-35 -25 52 -21 94 -24 217 -5 205 6 -3 8 -29 5 -57z m-79 -14 c-3 -10 -5 -2
-5 17 0 19 2 27 5 18 2 -10 2 -26 0 -35z m100 -15 c-2 -13 -4 -5 -4 17 -1 22
1 32 4 23 2 -10 2 -28 0 -40z m45 -166 l-6 -37 -7 38 c-3 21 -4 50 -1 65 l5
27 8 -28 c4 -15 5 -45 1 -65z m80 35 c17 15 18 15 12 -18 -15 -77 -33 -134
-35 -109 -1 21 -3 19 -9 -10 l-7 -35 -2 43 c0 26 -5 41 -11 37 -6 -4 -9 14 -7
48 2 52 3 54 21 41 17 -12 22 -11 38 3z m-641 -40 c-8 -8 -11 -7 -11 4 0 20
13 34 18 19 3 -7 -1 -17 -7 -23z m-20 -87 l-10 -25 0 25 c-1 14 3 36 7 50 l7
25 3 -25 c2 -14 -2 -37 -7 -50z m547 9 c-3 -8 -7 -3 -11 10 -4 17 -3 21 5 13
5 -5 8 -16 6 -23z m129 9 c-3 -8 -6 -5 -6 6 -1 11 2 17 5 13 3 -3 4 -12 1 -19z
m-108 -54 c4 3 6 -5 5 -17 -1 -12 -3 -28 -3 -35 -1 -7 -5 -11 -10 -7 -6 3 -9
24 -9 48 1 23 3 34 6 24 2 -9 7 -15 11 -13z m35 -13 c-4 -17 -9 -30 -11 -27
-3 2 -2 19 2 36 9 41 17 33 9 -9z m-617 -13 c-3 -8 -6 -5 -6 6 -1 11 2 17 5
13 3 -3 4 -12 1 -19z m853 -8 c0 -17 7 -47 15 -67 8 -19 15 -52 15 -71 0 -34
-1 -35 -15 -16 -8 10 -15 39 -15 64 l-2 45 -16 -45 c-13 -37 -17 -41 -20 -22
-2 13 3 33 11 45 8 13 12 37 9 60 -3 23 0 37 7 37 6 0 11 -14 11 -30z m-173
-72 c-3 -8 -6 -5 -6 6 -1 11 2 17 5 13 3 -3 4 -12 1 -19z m33 -5 c0 -48 12
-103 21 -97 5 3 6 23 3 45 -4 26 -3 39 5 39 6 0 11 -9 11 -19 0 -11 5 -23 10
-26 6 -4 8 -15 5 -25 -3 -10 -1 -21 5 -25 7 -4 6 -13 -2 -28 -11 -21 -10 -21
8 -7 18 15 18 14 1 -12 -11 -19 -13 -28 -6 -28 7 0 10 -2 8 -5 -3 -2 -18 0
-35 4 -27 9 -27 9 -4 10 27 1 17 17 -14 23 -20 3 -22 7 -32 111 -5 47 -3 67 5
67 6 0 11 -12 11 -27z m-783 -45 c-3 -8 -6 -5 -6 6 -1 11 2 17 5 13 3 -3 4
-12 1 -19z m930 -60 c-3 -7 -5 -2 -5 12 0 14 2 19 5 13 2 -7 2 -19 0 -25z m29
-90 c-3 -21 0 -40 5 -44 6 -3 8 -12 5 -20 -3 -8 -1 -14 3 -14 5 0 12 -8 15
-17 11 -26 45 -291 62 -468 8 -88 18 -183 21 -212 3 -29 2 -69 -2 -90 l-8 -38
-9 30 c-8 26 -17 107 -33 275 -14 148 -26 222 -36 235 -10 14 -32 146 -24 153
3 3 5 -1 5 -8 0 -7 2 -11 5 -9 5 5 -11 119 -21 153 -4 12 -2 16 5 12 6 -4 11
-2 11 3 0 6 -4 11 -10 11 -5 0 -10 7 -10 15 0 9 -6 12 -15 9 -8 -4 -15 -1 -15
6 0 6 4 8 10 5 12 -8 24 39 17 68 -6 21 -6 21 9 2 9 -12 13 -33 10 -57z m-51
42 c3 -5 1 -10 -4 -10 -6 0 -11 5 -11 10 0 6 2 10 4 10 3 0 8 -4 11 -10z
m-629 -87 c25 -66 31 -94 33 -151 1 -13 5 -21 10 -18 5 4 7 -4 4 -16 -4 -19
-3 -20 7 -8 9 12 11 8 6 -19 -3 -18 -6 -41 -6 -50 -1 -9 -7 2 -15 23 -8 22
-12 43 -9 48 3 4 0 8 -7 8 -7 0 -9 10 -7 25 3 14 2 25 -3 25 -4 0 -10 14 -14
31 -4 17 -9 28 -12 25 -3 -3 -1 -19 5 -35 6 -17 7 -33 3 -36 -5 -2 -12 15 -15
40 -4 25 -11 45 -16 45 -5 0 -7 7 -3 16 5 13 7 13 14 2 11 -16 11 -5 0 50 -11
56 2 53 25 -5z m580 -12 c1 -9 9 -43 18 -76 9 -32 13 -68 10 -78 -4 -12 -2
-17 4 -13 10 6 30 -46 33 -84 1 -8 5 -4 9 10 6 17 7 10 3 -23 -3 -26 -1 -53 4
-60 6 -6 13 -30 16 -52 6 -39 6 -40 -9 -15 -15 25 -15 24 -10 -15 4 -28 2 -35
-4 -25 -5 8 -10 24 -10 35 0 11 -7 29 -15 39 -8 11 -15 26 -15 33 0 7 -11 37
-25 67 -15 33 -25 72 -24 98 l1 43 15 -43 c8 -24 16 -42 18 -40 5 6 -30 168
-37 168 -4 0 -9 -12 -11 -27 -3 -23 -4 -21 -6 10 0 22 -6 37 -13 37 -17 1 17
27 34 27 8 0 14 -7 14 -16z m73 -44 c0 -21 -1 -21 -9 -2 -12 28 -12 37 0 30 6
-3 10 -16 9 -28z m-20 -67 c-1 -25 -28 43 -28 70 0 20 3 17 14 -15 8 -22 14
-47 14 -55z m-876 55 c-3 -9 -8 -14 -10 -11 -3 3 -2 9 2 15 9 16 15 13 8 -4z
m917 -59 c0 -26 -6 -18 -14 19 -5 22 -4 26 4 15 5 -8 10 -24 10 -34z m-25 -36
c3 -5 1 -10 -4 -10 -6 0 -11 5 -11 10 0 6 2 10 4 10 3 0 8 -4 11 -10z m-637
-36 c7 -14 7 -25 0 -35 -8 -11 -9 -11 -4 4 3 9 1 17 -4 17 -6 0 -10 10 -10 22
0 24 2 23 18 -8z m-181 -134 c7 -19 13 -42 13 -50 0 -13 -1 -13 -10 0 -7 11
-10 6 -11 -20 0 -32 -2 -29 -18 25 -10 33 -21 76 -25 95 l-6 34 22 -24 c13
-14 29 -40 35 -60z m190 58 c-3 -8 -6 -5 -6 6 -1 11 2 17 5 13 3 -3 4 -12 1
-19z m44 -33 c3 38 46 -156 55 -248 2 -21 7 -44 11 -50 4 -7 6 -20 4 -31 -1
-10 1 -16 6 -13 4 3 8 -6 8 -19 0 -32 -3 -30 -21 13 -20 47 -26 71 -28 106 0
15 -5 27 -9 27 -5 0 -6 4 -2 9 3 5 -1 28 -9 52 -8 23 -12 48 -9 57 4 10 2 13
-5 8 -6 -4 -10 1 -10 11 1 10 -2 36 -6 58 -5 29 -4 36 3 25 6 -8 11 -10 12 -5z
m-182 -335 c-1 -23 -2 -22 -9 5 -4 17 -11 39 -14 50 -5 13 -2 12 8 -5 8 -14
15 -36 15 -50z m275 -76 c3 -8 2 -12 -4 -9 -6 3 -10 10 -10 16 0 14 7 11 14
-7z m-280 -159 c-4 -8 -11 -15 -16 -15 -6 0 -5 6 2 15 7 8 14 15 16 15 2 0 1
-7 -2 -15z m306 -18 c0 -18 2 -19 10 -7 8 13 10 12 10 -3 0 -31 -34 -16 -35
15 -1 15 2 25 7 22 4 -3 8 -15 8 -27z m27 -62 c3 -9 3 -18 1 -21 -9 -9 -38 8
-38 22 0 19 29 18 37 -1z m536 -49 c7 -17 -18 -42 -27 -27 -4 5 -2 12 4 16 6
4 8 11 5 16 -4 5 -2 9 3 9 6 0 12 -6 15 -14z m-723 -76 c11 -7 -1 -9 -40 -9
-50 2 -52 2 -20 9 19 4 37 8 40 9 3 0 12 -4 20 -9z"/>
<path d="M3432 4028 c6 -18 28 -21 28 -4 0 9 -7 16 -16 16 -9 0 -14 -5 -12
-12z"/>
<path d="M3440 3821 c0 -6 5 -13 10 -16 6 -3 10 1 10 9 0 9 -4 16 -10 16 -5 0
-10 -4 -10 -9z"/>
<path d="M3600 3320 c-8 -5 -10 -10 -5 -10 6 0 17 5 25 10 8 5 11 10 5 10 -5
0 -17 -5 -25 -10z"/>
<path d="M2805 2870 c-3 -5 -1 -10 4 -10 6 0 11 5 11 10 0 6 -2 10 -4 10 -3 0
-8 -4 -11 -10z"/>
<path d="M2829 2838 c-12 -22 -12 -22 -20 -3 -5 13 -8 15 -8 5 0 -8 5 -22 12
-31 11 -15 14 -13 23 17 13 39 10 44 -7 12z"/>
<path d="M2845 2800 c-4 -17 -5 -34 -2 -36 2 -3 7 10 11 27 8 42 0 50 -9 9z"/>
<path d="M3995 2510 c3 -5 8 -10 11 -10 2 0 4 5 4 10 0 6 -5 10 -11 10 -5 0
-7 -4 -4 -10z"/>
<path d="M3986 1327 c3 -10 9 -15 12 -12 3 3 0 11 -7 18 -10 9 -11 8 -5 -6z"/>
<path d="M3991 1170 c0 -8 4 -24 9 -35 5 -13 9 -14 9 -5 0 8 -4 24 -9 35 -5
13 -9 14 -9 5z"/>
<path d="M3890 1147 c0 -7 9 -30 20 -52 23 -46 27 -24 5 29 -16 37 -25 46 -25
23z"/>
<path d="M1497 4766 c-50 -18 -64 -31 -77 -71 -19 -57 20 -98 93 -97 15 0 27
-3 27 -7 0 -18 -61 -90 -89 -107 -51 -30 -147 -241 -125 -275 11 -18 14 -388
4 -394 -20 -12 -9 -25 20 -25 22 0 28 -4 24 -15 -9 -22 5 -38 22 -24 15 12 15
30 20 -726 1 -165 4 -392 7 -505 6 -213 -7 -202 -17 15 -5 95 -17 473 -16 514
0 8 -3 12 -6 9 -3 -3 -7 -37 -9 -74 -3 -38 -7 -107 -11 -154 -3 -47 -5 -165
-5 -264 0 -176 0 -178 -19 -161 -11 10 -16 23 -12 29 9 14 19 535 10 530 -4
-3 -7 16 -6 40 0 25 4 43 9 40 5 -3 5 6 -1 20 -5 14 -6 26 -2 26 4 0 7 105 7
234 0 171 4 237 13 248 6 8 14 30 16 49 6 45 -15 162 -27 150 -5 -5 -13 -107
-19 -227 -5 -121 -12 -221 -14 -223 -2 -2 -15 1 -28 7 -36 16 -58 64 -54 120
l3 47 38 -1 c46 -2 45 20 -1 24 -28 3 -32 8 -37 40 -8 51 -28 92 -68 146 -20
25 -38 63 -42 85 -4 23 -11 43 -16 47 -5 3 -9 27 -9 53 0 46 -9 83 -45 181
-21 58 -75 113 -136 139 -44 19 -54 20 -126 9 -83 -12 -106 -26 -196 -115 -86
-85 -89 -92 -88 -202 1 -57 10 -140 22 -193 15 -74 18 -112 13 -185 -5 -65 -3
-101 6 -122 7 -17 15 -30 19 -29 38 4 39 -2 13 -49 l-27 -48 -3 -257 c-2 -157
-7 -258 -13 -258 -5 0 -38 8 -72 19 -127 38 -335 60 -429 45 -55 -9 -48 -28 7
-22 25 3 48 2 51 -3 3 -5 -18 -9 -45 -9 -28 0 -51 -4 -51 -8 0 -5 60 -8 133
-8 130 1 324 -11 339 -20 5 -3 26 -5 47 -6 l39 0 7 -53 c12 -103 32 -158 67
-188 18 -15 28 -27 22 -27 -5 0 -15 5 -21 11 -8 8 -15 5 -24 -12 -7 -13 -14
-29 -15 -34 -1 -6 -11 -49 -22 -95 -17 -68 -22 -130 -26 -310 -6 -232 -19
-451 -29 -466 -3 -5 -8 -61 -12 -124 -9 -157 -15 -204 -26 -208 -11 -4 -12
-42 0 -61 6 -9 11 -10 15 -3 9 15 38 2 32 -13 -3 -8 2 -16 10 -19 13 -5 14
-19 9 -83 -6 -66 -2 -103 25 -238 18 -88 36 -182 40 -210 5 -27 11 -58 15 -68
5 -11 2 -22 -8 -30 -24 -19 -61 -204 -46 -223 6 -7 11 -20 13 -30 3 -15 -3
-19 -23 -20 -14 -1 -20 1 -13 3 20 8 14 23 -10 24 -17 1 -19 2 -6 6 28 7 21
23 -9 23 -21 0 -24 3 -13 10 8 5 12 11 10 14 -6 5 -149 18 -200 18 l-35 0 30
9 c17 5 44 7 60 3 23 -4 27 -3 15 6 -12 8 -6 10 23 5 21 -3 36 -1 33 3 -3 5 8
6 25 4 17 -3 29 0 29 7 0 6 13 11 29 11 40 0 51 20 12 21 -60 3 -69 4 -77 12
-10 10 -36 9 -30 -1 8 -14 -114 -32 -216 -32 -52 0 -98 -3 -102 -7 -8 -9 -13
-9 -73 -11 l-43 -2 0 -51 c0 -42 3 -50 15 -45 20 7 62 -33 45 -44 -9 -5 -9 -9
-1 -14 6 -4 11 -2 11 4 0 7 7 9 16 6 8 -3 12 -2 9 4 -3 6 4 10 16 10 12 0 19
-3 16 -7 -4 -3 0 -15 9 -24 17 -18 37 -24 124 -34 25 -3 54 -7 65 -9 11 -2 26
-4 33 -5 6 0 12 -6 12 -12 0 -6 -7 -8 -17 -4 -13 4 -15 3 -7 -5 15 -15 44 -2
37 17 -6 14 -4 14 18 0 13 -8 52 -23 87 -33 50 -13 73 -15 110 -7 26 5 81 11
122 12 41 1 76 6 78 11 2 4 17 4 34 -1 17 -5 70 -11 118 -15 75 -6 92 -4 119
12 22 13 31 25 27 36 -3 12 2 18 12 18 25 0 43 -15 40 -31 -4 -16 22 -18 397
-22 173 -3 280 -8 298 -15 37 -16 46 -15 24 3 -18 13 -18 14 2 25 17 8 21 8
21 -4 0 -7 7 -17 16 -20 23 -9 34 -7 34 5 0 5 -4 8 -9 4 -5 -3 -12 -1 -16 5
-6 10 9 13 55 11 14 -1 50 3 80 8 39 6 57 6 62 -3 6 -8 8 -8 8 2 0 6 7 12 16
12 8 0 12 -4 9 -10 -3 -5 -2 -10 3 -10 6 0 12 7 16 15 3 8 10 15 16 15 5 0 10
-7 10 -15 0 -8 5 -15 10 -15 6 0 10 7 10 15 0 18 16 20 23 3 4 -9 8 -10 14 -2
11 14 45 28 61 25 10 -2 11 2 2 18 -11 21 -30 29 -30 13 0 -5 -7 -9 -16 -9
-12 0 -10 5 7 18 24 18 36 23 52 20 5 -1 6 3 3 8 -4 5 4 12 16 14 13 2 -2 3
-32 2 -30 -1 -63 2 -72 7 -10 5 -18 5 -18 1 0 -4 -26 -7 -58 -6 -237 8 -329 9
-343 2 -23 -12 -59 54 -43 79 11 17 182 85 195 77 8 -6 142 39 135 45 -2 3 5
6 17 7 12 1 42 5 66 9 26 4 41 3 38 -3 -4 -6 147 -10 386 -11 216 -1 416 -5
446 -8 41 -5 53 -4 49 6 -3 10 -96 14 -420 17 -228 2 -424 6 -434 7 -26 4 -30
26 -4 26 27 0 103 55 157 113 49 53 109 174 125 250 23 109 -14 353 -99 642
-20 70 -35 144 -35 177 l-1 58 -31 -1 c-51 -1 -113 9 -150 25 -41 17 -66 65
-97 184 -15 56 -19 94 -15 139 11 115 32 141 119 157 40 8 54 25 41 54 -4 9
-8 21 -8 25 -1 4 -7 11 -14 16 -7 4 -14 17 -17 29 -2 11 -9 31 -15 43 -7 12
-23 62 -36 111 -30 113 -84 240 -130 303 -88 125 -157 175 -289 211 -59 15
-64 19 -70 51 -3 19 -15 43 -25 53 -19 19 -19 19 3 25 12 3 39 14 59 23 34 15
38 21 38 56 0 46 -19 123 -66 271 -42 129 -45 136 -107 239 -59 100 -74 116
-105 116 -21 0 -24 3 -19 28 4 15 10 48 15 74 6 33 17 54 35 69 22 17 27 29
27 65 0 31 4 44 14 44 14 0 26 21 26 46 0 8 -4 14 -10 14 -5 0 -10 -7 -10 -15
0 -11 -12 -14 -51 -12 l-51 2 6 55 c12 97 36 157 92 222 48 55 73 106 65 133
-2 6 -5 24 -7 40 -5 36 -30 57 -63 53 -53 -6 -53 -73 0 -73 28 0 39 32 14 41
-21 9 -33 -5 -15 -16 13 -8 12 -10 -2 -10 -11 0 -18 8 -18 20 0 13 7 20 19 20
45 0 52 -62 8 -74 -27 -7 -71 23 -75 51 -4 28 52 83 85 83 124 0 168 -175 74
-290 l-21 -25 -6 23 c-7 26 -5 25 -38 12 -15 -6 -26 -17 -26 -29 0 -23 25 -45
41 -35 9 5 10 2 4 -12 -4 -10 -13 -38 -19 -61 -11 -39 -13 -40 -24 -23 -17 28
-55 20 -66 -13 -13 -35 -5 -40 52 -43 65 -2 81 -10 79 -42 -2 -22 3 -28 22
-30 29 -4 51 20 51 55 0 24 -3 26 -60 27 -33 1 -35 3 -37 36 -1 19 1 28 3 18
6 -20 31 -31 39 -18 4 6 16 10 29 10 27 0 46 18 46 42 0 24 -16 23 -23 -2 -3
-11 -10 -20 -16 -20 -8 0 -9 6 -2 19 8 15 5 24 -13 43 l-24 23 27 40 c44 66
54 100 48 165 -11 121 -96 176 -210 136z m-42 -46 c-3 -5 -6 -25 -7 -45 -1
-19 -6 -35 -11 -35 -5 0 -6 16 -2 37 7 39 13 53 21 53 3 0 3 -4 -1 -10z m125
-127 c0 -7 -4 -13 -9 -13 -5 0 -11 6 -14 13 -3 8 1 14 9 14 8 0 14 -6 14 -14z
m-114 -221 c-8 -20 -17 -65 -21 -100 -4 -34 -12 -65 -17 -68 -19 -12 8 141 33
187 16 31 19 21 5 -19z m-77 -18 c-6 -16 -14 -51 -18 -78 -3 -29 -12 -51 -20
-54 -11 -4 -13 2 -8 24 8 41 48 146 53 141 3 -2 -1 -17 -7 -33z m125 -60 c3
-8 2 -12 -4 -9 -6 3 -10 10 -10 16 0 14 7 11 14 -7z m156 -65 c-6 -10 -21 -19
-33 -19 -21 0 -21 0 3 24 28 27 45 24 30 -5z m-925 -39 c-3 -5 -14 -10 -23
-10 -15 0 -15 2 -2 10 20 13 33 13 25 0z m132 4 c-3 -3 -12 -4 -19 -1 -8 3 -5
6 6 6 11 1 17 -2 13 -5z m631 -1 c-10 -2 -28 -2 -40 0 -13 2 -5 4 17 4 22 1
32 -1 23 -4z m-534 -70 c31 -31 59 -68 63 -82 3 -14 14 -42 23 -61 23 -45 33
-132 23 -190 -7 -35 -15 -48 -38 -60 -17 -8 -32 -16 -34 -18 -8 -4 -8 -122 1
-122 4 0 8 -8 8 -19 0 -25 29 -49 39 -33 11 18 71 -52 71 -83 0 -13 14 -50 31
-81 17 -31 26 -60 21 -63 -4 -3 -17 -20 -27 -38 -35 -59 -80 -69 -213 -44 -76
15 -100 9 -67 -16 19 -14 19 -14 -5 -11 -31 4 -32 25 -2 55 12 12 22 33 22 46
0 26 -41 109 -65 134 -29 29 -35 52 -33 136 1 67 -2 92 -19 125 -20 41 -12 57
15 30 6 -6 15 -8 19 -5 12 13 -21 36 -55 39 l-32 2 -2 76 c-6 164 10 315 33
330 5 3 44 6 88 7 l79 1 56 -55z m546 11 c0 -26 -7 -43 -25 -60 -14 -13 -27
-39 -31 -63 -4 -22 -12 -46 -20 -52 -10 -8 -13 10 -16 100 l-3 111 48 0 47 0
0 -36z m-123 -41 c-2 -16 -4 -5 -4 22 0 28 2 40 4 28 2 -13 2 -35 0 -50z m-9
-178 c1 6 6 3 12 -5 6 -9 5 -19 -3 -28 -10 -12 -13 -11 -18 9 -4 13 -7 49 -6
79 l0 55 7 -60 c4 -33 7 -55 8 -50z m-31 3 c-3 -8 -6 -5 -6 6 -1 11 2 17 5 13
3 -3 4 -12 1 -19z m83 -13 c0 -8 -4 -15 -10 -15 -5 0 -7 7 -4 15 4 8 8 15 10
15 2 0 4 -7 4 -15z m-83 -37 c-3 -8 -6 -5 -6 6 -1 11 2 17 5 13 3 -3 4 -12 1
-19z m167 -12 c6 -10 25 -41 43 -68 55 -83 71 -119 107 -233 53 -168 76 -259
70 -283 -9 -33 -51 -54 -121 -60 -56 -4 -67 -2 -88 18 -23 21 -37 67 -49 157
l-6 43 50 -31 c28 -17 52 -30 54 -28 1 2 0 68 -3 145 l-6 141 -42 42 c-23 24
-45 51 -48 62 -7 21 -44 34 -75 26 -11 -3 -18 -1 -14 4 3 5 16 9 29 9 13 0 27
5 31 11 7 12 -60 8 -101 -6 -11 -3 -7 1 10 11 16 9 39 18 50 19 11 1 26 3 33
4 6 0 12 6 12 12 0 7 -10 9 -25 7 -22 -5 -32 2 -21 13 2 2 26 4 52 4 35 0 50
-5 58 -19z m-149 -6 c-3 -5 -12 -10 -18 -10 -7 0 -6 4 3 10 19 12 23 12 15 0z
m73 -187 c1 -129 19 -297 39 -373 8 -30 14 -57 13 -59 -3 -7 113 -61 131 -61
19 0 44 -52 35 -75 -3 -10 -19 -15 -46 -15 -22 0 -43 -1 -46 -2 -3 -2 -16 15
-28 37 -11 22 -24 41 -28 43 -5 2 -8 10 -8 18 0 20 -27 17 -39 -3 -8 -15 -10
-16 -15 -3 -16 51 -33 600 -18 600 5 0 10 -43 10 -107z m85 11 c23 -18 25 -26
30 -141 4 -85 3 -123 -5 -123 -19 0 -77 41 -82 58 -5 15 -11 250 -7 277 0 6
10 -4 20 -21 10 -17 30 -39 44 -50z m-850 -297 c7 -7 13 -19 15 -27 2 -8 7
-17 11 -20 27 -17 84 -196 71 -221 -4 -8 -11 -79 -14 -159 -4 -80 -12 -173
-18 -208 l-12 -62 52 -48 c29 -27 52 -53 52 -58 0 -11 122 -94 138 -94 6 0 29
-16 52 -35 47 -39 52 -40 131 -22 62 15 110 7 162 -28 25 -16 26 -20 13 -33
-13 -13 -19 -13 -55 2 -23 9 -46 16 -51 16 -15 0 -12 -21 6 -41 10 -11 14 -25
9 -36 -6 -17 -7 -17 -21 1 -15 22 -30 14 -36 -18 -1 -11 -9 -21 -16 -24 -7 -2
-10 2 -6 12 5 13 -1 16 -29 16 -45 0 -85 15 -117 44 -26 24 -118 66 -143 66
-16 0 -160 73 -224 113 -31 20 -42 34 -46 59 -2 18 -13 67 -23 108 -15 63 -18
115 -18 320 1 266 4 283 61 355 31 38 38 41 56 22z m137 -53 c0 -12 -7 -27
-15 -34 -13 -11 -15 -8 -17 16 0 16 -2 42 -3 58 l-2 29 18 -24 c10 -13 19 -34
19 -45z m47 -16 c-3 -7 -5 -2 -5 12 0 14 2 19 5 13 2 -7 2 -19 0 -25z m453
-33 c0 -9 -6 -12 -15 -9 -8 4 -12 10 -9 15 8 14 24 10 24 -6z m0 -81 c0 -19
-4 -34 -9 -34 -10 0 -21 60 -14 73 10 16 23 -6 23 -39z m-325 6 c17 -7 16 -9
-10 -9 -16 0 -37 4 -45 9 -12 8 -10 10 10 9 14 0 34 -4 45 -9z m-119 -35 c-20
-15 -36 -19 -36 -10 0 5 38 23 50 24 3 0 -4 -6 -14 -14z m-56 -5 c0 -5 -7 -7
-15 -4 -8 4 -15 8 -15 10 0 2 7 4 15 4 8 0 15 -4 15 -10z m693 -76 c2 -35 11
-44 21 -21 3 8 14 2 31 -18 15 -16 24 -24 21 -18 -4 7 25 -3 63 -23 53 -27 82
-50 116 -92 25 -32 45 -63 45 -70 0 -7 11 -34 25 -61 26 -50 44 -104 96 -301
17 -63 41 -134 55 -157 22 -38 23 -43 8 -57 -8 -9 -21 -16 -28 -16 -20 0 -54
-42 -72 -90 -12 -32 -17 -80 -18 -165 -1 -115 0 -123 29 -179 35 -69 89 -117
142 -125 40 -7 46 -19 57 -120 3 -24 10 -47 17 -52 7 -4 9 -17 5 -35 -5 -21
-4 -25 4 -14 8 13 10 13 10 -2 0 -26 0 -25 15 -62 17 -41 21 -91 5 -66 -7 10
-10 11 -10 2 0 -7 7 -15 16 -19 12 -4 14 -14 10 -37 -5 -24 -3 -27 5 -16 8 12
10 8 7 -17 -3 -18 -1 -30 3 -27 9 5 10 -16 10 -231 0 -148 -1 -152 -40 -269
-22 -65 -47 -126 -57 -135 -13 -13 -15 -13 -9 -1 5 8 -5 3 -22 -13 -16 -15
-32 -24 -36 -20 -4 3 -7 -1 -7 -9 0 -9 -7 -21 -15 -28 -14 -11 -14 -9 0 16
l15 29 -47 3 c-26 2 -51 8 -54 14 -4 6 -14 -3 -24 -19 -13 -22 -26 -30 -46
-31 -25 -1 -30 5 -44 49 -9 27 -19 49 -22 49 -3 0 -3 -7 1 -15 3 -8 1 -25 -4
-37 l-9 -23 0 24 c-1 16 -5 21 -16 18 -8 -4 -23 5 -35 20 l-20 26 0 -24 c-1
-23 -1 -23 -15 -5 -8 11 -15 16 -15 10 -1 -23 -20 24 -20 49 0 15 -4 27 -9 27
-5 0 -12 8 -16 18 -29 72 -71 336 -61 385 8 39 -24 77 -66 77 -20 0 -29 6 -33
22 -36 156 -47 213 -60 290 -15 91 -13 112 8 105 11 -3 17 -27 67 -282 25
-126 27 -132 35 -123 3 3 -1 39 -10 79 -53 253 -66 321 -61 327 4 3 19 -4 35
-16 22 -16 38 -20 65 -15 34 5 36 8 36 44 0 22 -4 39 -10 39 -5 0 -10 -11 -10
-25 0 -14 -4 -25 -9 -25 -23 0 -38 13 -34 28 4 16 -13 27 -68 45 -17 6 -29
120 -29 289 l0 87 31 17 31 16 -6 221 c-4 122 -11 290 -17 372 -5 83 -11 220
-13 306 -2 149 -2 156 18 165 24 11 35 -6 39 -62z m-333 26 c13 -8 13 -10 -2
-10 -9 0 -20 5 -23 10 -8 13 5 13 25 0z m-30 -30 c0 -5 -2 -10 -4 -10 -3 0 -8
5 -11 10 -3 6 -1 10 4 10 6 0 11 -4 11 -10z m-94 -36 c-6 -33 -33 -74 -48 -74
-16 0 -48 30 -48 45 0 18 25 36 63 45 17 4 33 8 35 9 1 1 0 -11 -2 -25z m689
4 c125 -28 208 -86 287 -201 52 -76 89 -165 133 -322 20 -71 45 -144 56 -161
21 -34 24 -60 9 -69 -5 -3 -47 -8 -94 -10 l-84 -5 -40 72 c-21 40 -42 91 -45
114 -10 63 -86 282 -124 358 -8 17 -33 54 -54 82 -21 29 -35 55 -31 59 4 5 2
5 -4 2 -6 -4 -19 2 -28 12 -10 11 -39 29 -66 40 -27 12 -51 25 -55 30 -8 13
81 13 140 -1z m-436 -308 c0 -170 -3 -310 -7 -310 -4 0 -24 5 -46 11 -28 8
-57 7 -103 -1 -61 -10 -67 -10 -99 12 -23 15 -29 24 -19 26 18 4 22 22 29 121
3 48 15 97 32 140 34 82 113 198 124 181 5 -8 11 -1 18 20 11 29 41 39 34 11
-1 -7 2 -10 8 -6 8 5 8 11 0 20 -8 9 -6 23 7 49 9 20 18 36 20 36 1 0 2 -139
2 -310z m-1086 63 c-7 -2 -21 -2 -30 0 -10 3 -4 5 12 5 17 0 24 -2 18 -5z
m1154 -60 c-3 -10 -5 -2 -5 17 0 19 2 27 5 18 2 -10 2 -26 0 -35z m28 -554 c5
-59 3 -89 -4 -93 -7 -5 -12 9 -13 41 -2 87 -6 158 -8 183 -1 14 -1 63 0 110
l3 85 7 -120 c4 -66 11 -159 15 -206z m-113 152 c4 -3 9 -114 11 -246 2 -132
1 -202 -2 -155 -5 75 -7 80 -13 45 -4 -22 -8 -68 -8 -102 0 -35 -7 -81 -16
-103 -12 -30 -15 -54 -9 -88 4 -26 6 -51 5 -57 -8 -54 -6 -124 4 -118 7 4 7 2
-1 -7 -8 -8 -9 -20 -3 -36 5 -13 7 -30 4 -38 -3 -8 -1 -17 5 -21 15 -9 14
-124 -2 -154 -18 -36 -33 -36 -51 0 -15 29 -14 32 5 48 l21 17 -26 14 c-23 12
-29 12 -43 -3 -33 -33 17 -127 68 -127 33 0 54 39 59 113 l5 71 35 -119 c19
-66 36 -131 37 -145 9 -113 17 -169 31 -190 16 -25 25 -97 15 -113 -8 -12 -33
49 -33 79 0 13 -4 24 -8 24 -4 0 -6 -17 -4 -37 4 -32 3 -36 -10 -26 -11 10
-17 10 -26 1 -9 -9 -14 -5 -20 12 -9 23 -10 23 -23 -15 l-14 -40 -6 40 -6 40
-2 -35 c-2 -45 -20 -21 -22 30 l-2 35 -6 -34 c-6 -32 -7 -34 -23 -18 -13 14
-17 14 -21 3 -9 -24 -47 -7 -47 20 0 13 -5 24 -11 24 -7 0 -9 15 -5 43 5 38 5
40 -5 13 -8 -20 -8 -38 -1 -65 17 -56 21 -120 9 -128 -6 -4 -8 0 -4 10 3 10 3
17 -2 17 -12 0 -57 112 -76 188 -9 35 -15 94 -13 132 2 63 7 75 30 72 16 -3
27 28 31 90 3 36 7 71 11 76 3 5 6 39 7 75 2 67 16 96 40 81 8 -5 9 -3 4 6 -5
8 -2 17 7 24 32 24 53 107 51 203 -4 164 -52 263 -129 263 l-31 0 -1 78 c-1
42 -4 101 -8 131 -6 51 -6 53 14 42 11 -6 32 -11 45 -11 29 0 52 -24 41 -42
-4 -7 2 -5 14 5 11 11 26 16 32 12 6 -3 10 -3 9 2 -3 18 1 34 9 30 14 -9 52
13 52 29 0 10 -8 26 -17 37 -17 19 -17 19 7 12 14 -4 28 -10 32 -14z m71 -124
c4 -123 -4 -171 -17 -106 -12 61 -5 251 9 237 2 -2 5 -61 8 -131z m70 6 c3
-47 1 -83 -4 -83 -5 0 -9 39 -9 87 0 47 2 84 4 82 2 -2 6 -41 9 -86z m497 -78
c0 -20 42 -19 98 0 24 9 47 13 51 10 5 -2 10 -56 13 -118 4 -94 10 -124 30
-169 l25 -55 -53 -2 c-73 -2 -94 -4 -89 -9 2 -3 0 -13 -5 -23 -7 -12 -7 -20 0
-24 6 -4 7 -11 4 -17 -4 -5 -21 4 -41 24 -54 53 -77 143 -68 270 4 56 9 107
12 115 7 18 23 17 23 -2z m-493 -37 c-3 -8 -6 -5 -6 6 -1 11 2 17 5 13 3 -3 4
-12 1 -19z m-61 -114 c3 -37 3 -108 0 -158 -4 -50 -8 -109 -9 -130 -2 -35 -6
-41 -35 -53 l-33 -13 7 37 c3 21 12 43 18 48 22 18 24 39 5 66 -10 14 -17 28
-15 30 2 2 7 36 10 74 12 130 18 165 31 165 9 0 16 -22 21 -66z m37 -41 c12
-186 9 -273 -8 -273 -13 0 -15 28 -15 190 0 105 4 190 8 190 5 0 12 -48 15
-107z m-806 -270 c-5 -7 -6 -17 -3 -22 4 -5 2 -12 -4 -16 -12 -7 -13 33 -2
210 l7 130 6 -145 c3 -80 1 -150 -4 -157z m54 170 c1 -27 1 -56 0 -65 -3 -25
8 -22 20 5 9 21 9 21 3 -3 -3 -14 -9 -43 -14 -65 -6 -30 -8 -34 -10 -15 -2 24
-3 23 -9 -5 -4 -16 -7 21 -6 82 0 62 3 113 8 113 4 0 8 -21 8 -47z m16 15 c-3
-8 -6 -5 -6 6 -1 11 2 17 5 13 3 -3 4 -12 1 -19z m-40 -50 c-3 -8 -6 -5 -6 6
-1 11 2 17 5 13 3 -3 4 -12 1 -19z m-57 -137 c0 -68 -3 -121 -7 -117 -4 3 -7
64 -7 135 -1 71 2 124 6 118 4 -7 8 -68 8 -136z m-23 37 c-3 -7 -5 -2 -5 12 0
14 2 19 5 13 2 -7 2 -19 0 -25z m1811 0 c0 -18 15 -78 33 -133 18 -55 33 -112
33 -126 1 -15 3 -25 5 -23 8 7 29 -89 24 -103 -3 -7 -1 -13 5 -13 9 0 15 -34
42 -227 5 -34 7 -70 5 -80 -2 -10 -5 -45 -6 -78 l-2 -60 -6 55 -6 55 -6 -70
c-9 -90 -43 -193 -80 -236 -16 -19 -29 -29 -29 -22 0 18 -30 21 -77 7 -24 -7
-43 -10 -43 -7 0 3 -6 1 -12 -4 -7 -5 -32 -15 -55 -23 -24 -7 -43 -18 -43 -23
0 -6 -2 -8 -5 -5 -6 6 33 79 48 89 5 3 8 9 7 13 0 3 7 30 16 59 12 36 18 102
21 217 4 150 2 177 -21 290 -14 69 -44 183 -66 254 -22 70 -40 136 -40 146 0
20 33 36 50 25 5 -3 10 0 11 7 0 10 2 10 6 1 7 -18 34 -16 63 5 20 13 75 32
122 41 3 0 6 -14 6 -31z m-948 -68 c0 -5 -7 -10 -15 -10 -8 0 -15 5 -15 10 0
6 7 10 15 10 8 0 15 -4 15 -10z m90 -22 c0 -4 -11 -3 -25 2 -14 5 -25 7 -25 4
0 -3 -5 -2 -12 2 -8 5 -6 10 8 14 19 7 54 -8 54 -22z m-140 14 c0 -9 -62 -34
-68 -27 -3 3 10 11 29 19 41 18 39 18 39 8z m60 -16 c0 -2 -7 -6 -15 -10 -8
-3 -15 -1 -15 4 0 6 7 10 15 10 8 0 15 -2 15 -4z m-68 -22 c-18 -12 -20 -19
-12 -35 6 -10 9 -19 6 -19 -2 0 -12 -3 -22 -7 -13 -5 -16 -3 -11 10 3 9 2 19
-3 22 -17 11 -11 23 18 33 40 15 49 14 24 -4z m150 -4 c21 -13 27 -20 16 -20
-9 0 -20 5 -23 11 -4 6 -17 14 -29 19 -11 5 -15 9 -9 9 7 1 27 -8 45 -19z
m-109 -117 c9 -60 28 -152 41 -205 12 -54 21 -100 18 -103 -3 -3 -13 -5 -23
-5 -13 0 -21 12 -29 43 -6 23 -29 96 -51 162 -21 66 -39 125 -39 132 0 6 14
16 31 22 26 9 31 15 27 36 -3 14 -2 25 1 25 4 0 15 -48 24 -107z m-113 83 c0
-3 -4 -8 -10 -11 -5 -3 -10 -1 -10 4 0 6 5 11 10 11 6 0 10 -2 10 -4z m-743
-83 c-2 -16 -4 -3 -4 27 0 30 2 43 4 28 2 -16 2 -40 0 -55z m838 -237 c25 -85
27 -129 4 -70 -29 75 -89 279 -88 302 1 30 41 -82 84 -232z m-778 142 c-3 -8
-6 -5 -6 6 -1 11 2 17 5 13 3 -3 4 -12 1 -19z m14 -259 c31 -15 47 -18 67 -11
16 5 42 5 63 0 l35 -9 -8 -67 c-4 -37 -12 -97 -18 -135 -5 -37 -10 -142 -10
-232 0 -152 2 -167 20 -185 l20 -20 -21 0 c-11 0 -29 4 -39 10 -10 5 -35 11
-54 12 -25 2 -35 7 -31 16 2 7 0 32 -5 55 -12 47 -58 283 -72 367 -9 50 -2
220 8 220 3 0 23 -9 45 -21z m126 15 c-3 -3 -12 -4 -19 -1 -8 3 -5 6 6 6 11 1
17 -2 13 -5z m-82 -14 c3 -5 1 -10 -4 -10 -6 0 -11 5 -11 10 0 6 2 10 4 10 3
0 8 -4 11 -10z m429 -294 c20 -49 40 -94 45 -100 4 -6 6 -30 3 -53 -3 -34 -8
-43 -23 -43 -13 0 -19 -7 -18 -22 0 -13 -3 -45 -8 -72 -9 -57 -13 -59 -148
-77 -44 -6 -90 -17 -102 -25 -20 -13 -23 -13 -23 0 0 20 -32 86 -41 86 -3 0
-9 12 -12 28 -7 36 7 297 24 440 l13 113 98 -2 c55 -1 102 2 105 5 4 4 17 -37
29 -91 12 -54 38 -138 58 -187z m376 8 c7 -17 7 -31 0 -42 -8 -15 -9 -14 -10
4 0 12 -7 27 -15 34 -8 7 -12 16 -9 21 10 16 24 9 34 -17z m747 -6 c-3 -8 -6
-5 -6 6 -1 11 2 17 5 13 3 -3 4 -12 1 -19z m-730 -70 c-3 -7 -5 -2 -5 12 0 14
2 19 5 13 2 -7 2 -19 0 -25z m-322 -19 c-4 -5 -1 -9 6 -9 7 0 10 -3 6 -6 -7
-8 44 -65 53 -59 4 3 13 -9 20 -26 8 -18 18 -28 26 -25 8 3 14 1 14 -4 0 -6
11 -20 25 -32 13 -11 22 -25 19 -30 -7 -10 21 -39 30 -31 3 4 6 1 6 -6 0 -7 7
-11 14 -8 10 4 13 1 9 -8 -4 -13 -10 -12 -36 3 -28 16 -98 80 -123 113 -67 90
-105 163 -74 144 6 -4 8 -11 5 -16z m55 -144 c0 -10 -35 -4 -53 9 -13 10 -15
21 -11 44 l6 32 29 -40 c16 -22 29 -42 29 -45z m-50 -15 c0 -5 -8 -7 -17 -4
-16 5 -16 4 -2 -5 12 -7 17 -27 18 -68 0 -31 3 -65 6 -74 5 -13 0 -16 -25 -14
-17 1 -35 6 -39 11 -4 5 -1 44 7 87 12 63 19 77 34 77 10 0 18 -4 18 -10z m86
-29 c-3 -4 27 -28 66 -54 38 -26 66 -47 62 -47 -10 0 27 -23 64 -40 13 -5 21
-14 18 -18 -2 -4 3 -8 12 -9 34 -2 127 -24 135 -32 4 -4 -44 -11 -108 -15
-104 -5 -119 -4 -143 13 -32 22 -119 61 -137 61 -17 0 -27 100 -11 119 8 12 8
13 -1 7 -18 -10 -16 10 3 29 12 12 19 13 30 4 8 -6 12 -14 10 -18z m563 -26
c0 -5 -4 -3 -9 5 -5 8 -9 22 -9 30 0 16 17 -16 18 -35z m-715 -124 c9 -10 13
-21 9 -24 -10 -11 -53 -8 -53 4 0 5 4 8 9 5 4 -3 7 6 5 20 -3 29 -14 46 -14
22 0 -9 -7 -21 -16 -29 -13 -10 -17 -10 -24 0 -11 19 -32 3 -25 -20 5 -16 2
-18 -23 -13 -17 3 -47 1 -68 -6 -33 -11 -39 -11 -51 6 -17 24 -17 68 0 61 8
-3 61 5 118 16 l104 22 7 -24 c4 -13 14 -31 22 -40z m-477 7 c-5 -24 -11 -54
-13 -68 -1 -14 -3 -27 -3 -29 -1 -3 -5 -1 -10 5 -6 5 -6 26 0 54 15 63 17 74
18 83 1 5 5 6 10 3 5 -4 5 -24 -2 -48z m128 36 c17 -4 33 -12 37 -18 17 -25
26 -78 18 -106 -7 -26 -6 -30 11 -30 10 0 18 -3 18 -7 -3 -20 2 -26 11 -13 8
11 9 8 4 -12 -3 -16 -2 -28 2 -29 5 0 17 -2 27 -4 9 -2 17 2 17 8 0 8 3 8 8 2
11 -16 71 -47 80 -41 5 3 21 -2 36 -9 16 -8 32 -12 37 -9 5 3 9 1 9 -5 0 -14
-32 -22 -87 -21 -26 0 -66 0 -88 0 -76 1 -148 39 -114 61 12 8 12 10 -1 8 -16
-3 -93 31 -98 44 -2 4 -7 5 -11 3 -4 -3 -13 -1 -20 4 -11 6 -11 18 -3 56 6 27
14 69 18 92 7 48 2 47 89 26z m444 -65 c44 -16 40 -33 -6 -24 -44 8 -53 13
-53 26 0 12 20 11 59 -2z m-822 -5 c-3 -3 -12 -4 -19 -1 -8 3 -5 6 6 6 11 1
17 -2 13 -5z m913 -19 c0 6 5 2 11 -8 6 -9 14 -15 19 -12 4 3 10 -2 14 -10 7
-20 -6 -26 -72 -30 l-57 -4 53 10 c28 6 52 15 52 21 0 6 -12 7 -31 3 -17 -4
-29 -3 -27 1 3 5 8 18 12 29 6 16 9 17 16 5 6 -8 10 -10 10 -5z m-1143 -21
c-3 -3 -12 -4 -19 -1 -8 3 -5 6 6 6 11 1 17 -2 13 -5z m779 -3 c-8 -12 -46
-21 -46 -11 0 9 18 18 38 19 7 1 11 -3 8 -8z m784 -4 c0 -8 -29 -20 -75 -31
-41 -10 -75 -21 -75 -25 0 -8 -80 -4 -88 4 -14 14 25 35 62 34 22 -1 32 -3 21
-6 -25 -6 -44 -23 -25 -23 14 0 121 31 130 38 2 1 -2 7 -10 12 -11 7 -5 10 23
10 24 0 37 -5 37 -13z m-1673 -3 c-3 -3 -12 -4 -19 -1 -8 3 -5 6 6 6 11 1 17
-2 13 -5z m318 -4 c3 -5 1 -10 -4 -10 -6 0 -11 5 -11 10 0 6 2 10 4 10 3 0 8
-4 11 -10z m-154 -18 c-7 -2 -18 1 -23 6 -8 8 -4 9 13 5 13 -4 18 -8 10 -11z
m64 8 c3 -6 -1 -7 -9 -4 -18 7 -21 14 -7 14 6 0 13 -4 16 -10z m52 4 c-3 -3
-12 -4 -19 -1 -8 3 -5 6 6 6 11 1 17 -2 13 -5z m906 -1 c-7 -2 -21 -2 -30 0
-10 3 -4 5 12 5 17 0 24 -2 18 -5z m-306 -29 c-9 -9 -28 6 -21 18 4 6 10 6 17
-1 6 -6 8 -13 4 -17z m523 16 c0 -5 -12 -10 -26 -10 -14 0 -23 4 -19 10 3 6
15 10 26 10 10 0 19 -4 19 -10z m-1015 -5 c-30 -12 -95 -22 -95 -15 0 5 12 11
28 13 36 5 80 6 67 2z m1300 -14 c-3 -6 -11 -11 -16 -11 -5 0 -4 6 3 14 14 16
24 13 13 -3z m-1095 -25 c0 -5 -7 -3 -15 4 -8 7 -12 17 -9 22 7 10 24 -9 24
-26z m-185 14 c-3 -5 -14 -10 -23 -9 -14 0 -13 2 3 9 27 11 27 11 20 0z m1202
4 c-3 -3 -12 -4 -19 -1 -8 3 -5 6 6 6 11 1 17 -2 13 -5z m-1512 -14 c-27 -12
-35 -12 -35 0 0 6 12 10 28 9 24 0 25 -1 7 -9z m532 -37 c0 -7 -8 -13 -17 -13
-10 0 -22 6 -28 13 -8 9 -4 12 17 12 16 0 28 -6 28 -12z m382 -4 c-22 -13 -31
-11 -17 5 7 8 17 12 22 9 4 -3 2 -9 -5 -14z m1104 14 c-7 -2 -19 -2 -25 0 -7
3 -2 5 12 5 14 0 19 -2 13 -5z m6 -26 c-2 -1 -11 -8 -21 -15 -12 -10 -18 -10
-24 -1 -4 7 -3 9 4 5 6 -3 13 -2 17 4 3 5 11 10 17 10 6 0 9 -1 7 -3z m71 -7
c-8 -5 -19 -10 -25 -10 -5 0 -3 5 5 10 8 5 20 10 25 10 6 0 3 -5 -5 -10z
m-1470 -54 c0 -3 -18 -6 -41 -6 -34 0 -38 2 -27 13 20 21 42 25 55 11 7 -7 13
-15 13 -18z m665 4 c-3 -5 -16 -10 -28 -9 -20 1 -20 2 3 9 14 4 26 8 28 9 2 1
0 -3 -3 -9z m75 -1 c0 6 7 11 15 11 16 0 20 -15 7 -24 -5 -3 -26 -2 -48 1 -30
5 -34 8 -19 13 11 4 26 3 33 -2 8 -7 12 -7 12 1z m295 1 c3 -5 -1 -10 -10 -10
-9 0 -13 5 -10 10 3 6 8 10 10 10 2 0 7 -4 10 -10z"/>
<path d="M980 4052 c0 -14 11 -21 26 -15 21 8 17 23 -6 23 -11 0 -20 -4 -20
-8z"/>
<path d="M785 4010 c-16 -11 -24 -20 -17 -20 7 0 24 7 37 16 14 9 33 13 45 9
11 -4 20 -2 20 4 0 18 -53 12 -85 -9z"/>
<path d="M965 4019 c-5 -8 1 -20 18 -34 15 -11 27 -28 27 -38 0 -9 5 -17 10
-17 16 0 24 31 11 39 -7 4 -11 14 -9 22 2 8 -5 14 -15 14 -10 0 -22 6 -26 14
-7 10 -10 11 -16 0z"/>
<path d="M833 3968 c-27 -13 -31 -34 -5 -23 9 4 29 10 44 13 15 2 25 8 22 13
-7 12 -33 10 -61 -3z"/>
<path d="M962 3943 c-6 -2 -10 -9 -7 -13 7 -11 35 -2 35 11 0 10 -8 10 -28 2z"/>
<path d="M1007 3893 c-3 -3 -3 -12 0 -21 5 -12 1 -14 -25 -9 -35 7 -50 -6 -30
-27 15 -15 85 -13 101 3 14 14 4 43 -20 52 -11 4 -23 5 -26 2z"/>
<path d="M1010 3810 c0 -5 7 -10 15 -10 8 0 15 5 15 10 0 6 -7 10 -15 10 -8 0
-15 -4 -15 -10z"/>
<path d="M840 3714 c0 -8 9 -14 19 -14 30 0 34 17 6 22 -17 4 -25 1 -25 -8z"/>
<path d="M970 3439 c0 -5 5 -7 10 -4 6 3 10 8 10 11 0 2 -4 4 -10 4 -5 0 -10
-5 -10 -11z"/>
<path d="M1220 2409 c0 -5 6 -9 13 -9 7 0 30 -9 52 -20 44 -23 45 -23 45 -12
0 11 -41 34 -77 43 -18 4 -33 3 -33 -2z"/>
<path d="M1550 2965 c0 -8 2 -15 4 -15 2 0 6 7 10 15 3 8 1 15 -4 15 -6 0 -10
-7 -10 -15z"/>
<path d="M1584 2958 c-20 -30 -34 -61 -30 -65 2 -2 14 12 26 32 12 20 20 38
17 41 -3 3 -9 -1 -13 -8z"/>
<path d="M1599 2922 c-13 -26 -30 -54 -37 -64 -7 -9 -9 -19 -4 -22 5 -3 16 11
25 30 9 19 24 37 32 40 8 4 15 14 15 24 0 10 5 20 12 22 8 3 7 6 -3 10 -11 4
-23 -8 -40 -40z"/>
<path d="M1648 2925 c-10 -13 -18 -32 -18 -42 0 -15 -2 -16 -11 -3 -8 12 -9
10 -4 -9 5 -16 4 -21 -4 -17 -6 4 -11 3 -11 -3 0 -5 -3 -16 -6 -25 -3 -9 -1
-16 5 -16 7 0 17 14 22 30 6 17 15 30 19 30 9 0 35 69 28 75 -1 2 -11 -7 -20
-20z"/>
<path d="M1697 2906 c-4 -10 -5 -21 -2 -24 9 -9 17 6 13 25 -3 17 -4 17 -11
-1z"/>
<path d="M1716 2857 c3 -10 9 -15 12 -12 3 3 0 11 -7 18 -10 9 -11 8 -5 -6z"/>
<path d="M1637 2812 c-18 -20 -22 -32 -9 -32 4 0 12 11 19 25 13 30 12 31 -10
7z"/>
<path d="M1495 2807 c-12 -9 -14 -16 -7 -21 6 -4 8 -14 5 -23 -4 -10 -2 -14 4
-10 6 4 13 1 16 -5 6 -18 36 21 37 46 0 20 0 20 -14 0 -8 -11 -18 -15 -23 -10
-4 5 -2 11 5 13 13 5 17 23 4 23 -5 0 -16 -6 -27 -13z"/>
<path d="M1601 2749 c-7 -12 -10 -23 -8 -26 3 -3 11 5 17 17 15 28 8 35 -9 9z"/>
<path d="M1550 2735 c0 -8 5 -15 10 -15 6 0 10 7 10 15 0 8 -4 15 -10 15 -5 0
-10 -7 -10 -15z"/>
<path d="M1490 2730 c0 -5 5 -10 11 -10 6 0 9 -7 5 -15 -3 -8 -1 -15 4 -15 11
0 13 11 4 34 -7 18 -24 22 -24 6z"/>
<path d="M1716 2665 c-3 -8 -1 -15 4 -15 6 0 10 7 10 15 0 8 -2 15 -4 15 -2 0
-6 -7 -10 -15z"/>
<path d="M1572 1864 c-29 -20 -31 -79 -3 -94 24 -12 35 1 27 33 -14 56 44 60
64 4 20 -59 40 -182 34 -214 -4 -20 -2 -33 4 -33 6 0 16 -35 23 -77 10 -64 18
-83 47 -115 27 -30 42 -38 68 -38 60 0 94 64 64 121 -11 20 -35 25 -45 9 -10
-16 5 -50 21 -50 23 0 16 -38 -12 -56 -24 -16 -27 -16 -52 3 -35 25 -65 135
-59 208 4 39 1 55 -14 74 -10 13 -19 37 -19 55 0 75 -32 151 -72 172 -35 18
-48 18 -76 -2z m8 -79 c0 -5 -5 -3 -10 5 -5 8 -10 20 -10 25 0 6 5 3 10 -5 5
-8 10 -19 10 -25z m159 -206 c-8 -15 -8 -33 0 -64 6 -24 11 -52 10 -62 -1 -27
-38 128 -39 161 l0 30 20 -22 c17 -18 19 -26 9 -43z m146 -139 c3 -5 1 -10 -4
-10 -6 0 -11 5 -11 10 0 6 2 10 4 10 3 0 8 -4 11 -10z"/>
<path d="M1851 564 c0 -11 3 -14 6 -6 3 7 2 16 -1 19 -3 4 -6 -2 -5 -13z"/>
<path d="M1240 2901 c0 -12 -4 -21 -10 -21 -5 0 -10 -7 -10 -16 0 -14 -3 -15
-17 -3 -10 7 -15 9 -10 4 4 -4 -2 -19 -14 -31 -12 -13 -19 -30 -16 -38 4 -9 0
-34 -8 -57 -17 -48 -19 -76 -3 -39 6 14 12 27 13 30 1 3 8 19 15 35 l13 30 7
-25 c8 -24 8 -24 9 -2 1 12 12 49 25 82 14 33 20 62 15 65 -5 4 -9 -3 -9 -14z"/>
<path d="M1250 2861 c0 -6 4 -13 10 -16 6 -3 7 1 4 9 -7 18 -14 21 -14 7z"/>
<path d="M1270 2815 c0 -15 -2 -17 -9 -6 -7 10 -11 5 -16 -18 -3 -17 -11 -31
-16 -31 -5 0 -9 -7 -9 -15 0 -17 9 -19 29 -6 7 5 10 14 7 20 -4 6 -3 11 1 11
16 0 31 36 22 51 -7 11 -9 10 -9 -6z"/>
<path d="M1136 2754 c-4 -14 -5 -28 -3 -31 3 -2 8 8 11 23 4 14 5 28 3 31 -3
2 -8 -8 -11 -23z"/>
<path d="M1270 2750 c0 -5 5 -10 11 -10 5 0 7 5 4 10 -3 6 -8 10 -11 10 -2 0
-4 -4 -4 -10z"/>
<path d="M1169 2693 c-26 -61 -31 -83 -20 -83 6 0 11 6 11 13 0 7 9 32 20 55
22 45 24 52 12 52 -4 0 -15 -17 -23 -37z"/>
<path d="M1114 2687 c-2 -7 0 -24 5 -38 9 -21 10 -20 8 13 -2 41 -5 46 -13 25z"/>
<path d="M1179 2623 c-7 -16 -15 -32 -17 -37 -3 -5 1 -7 8 -4 7 2 14 11 16 19
1 7 5 22 9 32 11 27 0 20 -16 -10z"/>
<path d="M1125 2050 c-3 -5 -1 -10 4 -10 6 0 11 5 11 10 0 6 -2 10 -4 10 -3 0
-8 -4 -11 -10z"/>
<path d="M1150 2046 c0 -2 7 -7 16 -10 8 -3 12 -2 9 4 -6 10 -25 14 -25 6z"/>
<path d="M1246 1407 c3 -10 9 -15 12 -12 3 3 0 11 -7 18 -10 9 -11 8 -5 -6z"/>
<path d="M1110 1166 c0 -51 15 -62 22 -17 3 18 0 28 -6 24 -5 -4 -7 1 -3 10 3
9 2 19 -3 22 -6 4 -10 -13 -10 -39z"/>
<path d="M1070 1180 c0 -5 5 -10 10 -10 6 0 10 5 10 10 0 6 -4 10 -10 10 -5 0
-10 -4 -10 -10z"/>
<path d="M1088 1090 c-2 -25 -1 -47 2 -50 4 -3 11 -15 15 -28 12 -41 13 -19 0
53 l-12 70 -5 -45z"/>
<path d="M1142 1080 c0 -14 2 -19 5 -12 2 6 2 18 0 25 -3 6 -5 1 -5 -13z"/>
<path d="M1181 1020 l1 -55 11 43 c7 31 7 46 -1 54 -9 9 -12 -1 -11 -42z"/>
<path d="M1282 1035 c0 -16 2 -22 5 -12 2 9 2 23 0 30 -3 6 -5 -1 -5 -18z"/>
<path d="M1220 1013 c0 -10 5 -25 10 -33 7 -11 10 -7 10 18 0 17 -4 32 -10 32
-5 0 -10 -8 -10 -17z"/>
<path d="M1302 950 c0 -14 2 -19 5 -12 2 6 2 18 0 25 -3 6 -5 1 -5 -13z"/>
<path d="M1280 586 c0 -2 8 -10 18 -17 15 -13 16 -12 3 4 -13 16 -21 21 -21
13z"/>
<path d="M880 410 c0 -5 7 -7 15 -4 8 4 15 8 15 10 0 2 -7 4 -15 4 -8 0 -15
-4 -15 -10z"/>
<path d="M805 219 c-4 -6 -5 -12 -2 -15 2 -3 7 2 10 11 7 17 1 20 -8 4z"/>
<path d="M1008 183 c7 -3 16 -2 19 1 4 3 -2 6 -13 5 -11 0 -14 -3 -6 -6z"/>
<path d="M3375 4720 c-3 -4 9 -16 26 -24 36 -18 49 -20 49 -8 0 13 -69 42 -75
32z"/>
<path d="M3557 4673 c-15 -14 -5 -19 43 -19 52 0 66 9 28 20 -30 8 -63 8 -71
-1z"/>
<path d="M3447 4646 c-5 -12 -13 -13 -39 -6 -21 6 -36 6 -42 0 -7 -7 -7 -10 0
-10 6 0 20 -9 33 -21 18 -17 25 -18 36 -9 11 9 15 9 15 1 0 -19 17 -12 23 10
10 37 -14 68 -26 35z"/>
<path d="M3516 4634 c-8 -21 -8 -24 3 -24 12 0 22 28 12 35 -5 3 -12 -2 -15
-11z"/>
<path d="M3543 4623 c-8 -21 33 -55 60 -51 31 5 33 28 4 28 -37 0 -56 10 -50
26 3 8 2 14 -1 14 -4 0 -9 -7 -13 -17z"/>
<path d="M3415 4551 c-11 -10 -4 -39 13 -54 20 -18 82 -23 82 -8 0 14 -18 23
-24 12 -3 -5 -15 -7 -26 -4 -15 4 -17 9 -10 23 6 10 10 23 10 27 0 9 -37 12
-45 4z"/>
<path d="M3516 4532 c-2 -4 -1 -14 3 -21 6 -10 10 -9 14 3 6 16 -8 32 -17 18z"/>
<path d="M3372 4467 c-8 -10 -3 -16 20 -26 21 -10 26 -16 17 -22 -21 -13 8
-39 44 -39 17 0 27 3 23 7 -4 4 7 12 25 18 46 16 50 36 7 35 -51 -1 -99 11
-105 26 -6 17 -17 18 -31 1z"/>
<path d="M4923 3828 c2 -7 10 -13 17 -13 7 0 15 6 18 13 2 7 -5 12 -18 12 -13
0 -20 -5 -17 -12z"/>
<path d="M1391 3644 c0 -11 3 -14 6 -6 3 7 2 16 -1 19 -3 4 -6 -2 -5 -13z"/>
<path d="M1391 3564 c0 -11 3 -14 6 -6 3 7 2 16 -1 19 -3 4 -6 -2 -5 -13z"/>
<path d="M178 2923 c7 -3 16 -2 19 1 4 3 -2 6 -13 5 -11 0 -14 -3 -6 -6z"/>
<path d="M0 2895 c0 -21 5 -25 33 -26 17 -1 37 0 42 1 24 6 207 -1 285 -12 47
-6 99 -12 116 -13 16 -1 36 -5 42 -9 7 -4 12 -3 12 2 0 12 -27 23 -65 27 -80
8 -225 26 -270 34 -27 5 -83 12 -122 15 -73 6 -73 6 -73 -19z"/>
<path d="M4228 423 c12 -2 32 -2 45 0 12 2 2 4 -23 4 -25 0 -35 -2 -22 -4z"/>
<path d="M4330 417 c3 -3 79 -10 170 -16 437 -29 601 -43 646 -56 27 -7 40
-14 29 -14 -11 -1 -52 -14 -91 -31 -39 -16 -113 -36 -165 -44 -52 -9 -159 -27
-239 -41 -80 -14 -172 -30 -205 -36 -33 -5 -150 -27 -260 -49 -110 -21 -306
-57 -435 -80 -277 -48 -285 -50 -200 -45 71 3 222 27 285 43 22 6 85 18 140
27 55 8 143 24 195 35 52 10 136 26 185 35 50 9 122 22 160 29 39 8 88 12 110
10 34 -3 36 -2 15 6 -21 8 -18 9 15 5 45 -5 191 17 273 41 65 18 214 46 220
40 5 -5 -44 -166 -56 -184 -5 -7 -44 -17 -88 -22 -76 -9 -226 -40 -289 -59
-71 -22 102 -10 224 15 69 15 134 27 143 28 12 0 23 17 34 51 9 27 25 67 36
88 14 28 18 54 16 100 l-3 62 -40 7 c-79 15 -835 65 -825 55z m860 -107 c0
-11 1 -11 -50 -16 -35 -3 -35 -3 -10 11 29 17 60 19 60 5z"/>
<path d="M0 250 c0 -13 11 -13 30 0 12 8 11 10 -7 10 -13 0 -23 -4 -23 -10z"/>
<path d="M2335 240 c-3 -5 -13 -6 -23 -3 -14 5 -15 3 -5 -7 9 -10 15 -10 26
-2 8 7 17 9 20 5 4 -3 7 -1 7 5 0 14 -16 16 -25 2z"/>
<path d="M2270 170 c-13 -8 -12 -10 3 -10 9 0 17 5 17 10 0 12 -1 12 -20 0z"/>
<path d="M1948 138 c6 -6 18 -8 28 -6 14 3 12 5 -9 10 -19 3 -25 2 -19 -4z"/>
<path d="M2015 140 c-3 -6 1 -7 9 -4 18 7 21 14 7 14 -6 0 -13 -4 -16 -10z"/>
</g>
</svg>
